<svg width="388" height="390" xmlns="http://www.w3.org/2000/svg" xmlns:xlink="http://www.w3.org/1999/xlink" xml:space="preserve" overflow="hidden"><defs><clipPath id="clip0"><rect x="2009" y="780" width="388" height="390"/></clipPath></defs><g clip-path="url(#clip0)" transform="translate(-2009 -780)"><path d="M2313.18 1166.39C2305.34 1161.34 2305.36 1159.54 2313.32 1154.7 2321.57 1149.69 2322.25 1149.62 2322.25 1153.86 2322.25 1156.64 2327.28 1157.16 2354.27 1157.16L2386.27 1157.16 2386.27 1030.26C2386.27 947.129 2387.03 903.353 2388.48 903.353 2389.93 903.353 2390.69 947.863 2390.69 1032.46L2390.69 1161.58 2356.47 1161.58C2323.73 1161.58 2322.25 1161.77 2322.25 1166 2322.25 1171.23 2320.83 1171.3 2313.18 1166.39ZM2015.4 1128.47C2015.4 1100.51 2014.88 1095.37 2012.09 1095.37 2007.96 1095.37 2007.96 1094.52 2012.14 1086.43 2017.08 1076.89 2018.05 1077.41 2026 1093.72 2026.44 1094.62 2025.23 1095.37 2023.31 1095.37 2020.29 1095.37 2019.81 1099.55 2019.81 1126.26L2019.81 1157.16 2152.27 1157.16C2239.1 1157.16 2284.72 1157.92 2284.72 1159.37 2284.72 1160.82 2238.36 1161.58 2150.06 1161.58L2015.4 1161.58ZM2015.4 922.113 2015.4 786.382 2052.93 786.382C2084.82 786.382 2090.46 785.884 2090.46 783.071 2090.46 778.668 2092.33 778.898 2101.38 784.416L2108.99 789.054 2100.28 794.335C2091.79 799.479 2091.54 799.502 2090.86 795.206 2090.18 791.012 2088.43 790.796 2054.98 790.796L2019.81 790.796 2019.81 924.323C2019.81 1011.87 2019.05 1057.85 2017.61 1057.85 2016.16 1057.85 2015.4 1011.13 2015.4 922.113ZM2101.49 976.191 2101.49 943.083 2136.92 943.083C2171.96 943.083 2172.4 943.142 2177.97 948.722 2182.83 953.569 2183.43 955.646 2182.27 963.62 2180.6 975.14 2180.6 977.234 2182.29 988.904 2183.27 995.702 2182.65 999.839 2180.05 1003.8L2176.46 1009.29 2138.98 1009.29 2101.5 1009.29ZM2173.94 992.966C2174.39 987.577 2173.56 983.673 2171.74 982.514 2170.14 981.496 2155.66 980.654 2139.58 980.637L2110.33 980.604 2110.33 991.698 2110.33 1002.79 2141.78 1002.18 2173.24 1001.57ZM2170.78 971.128C2173.53 969.117 2174.48 965.997 2173.97 960.642L2173.24 953.01 2141.78 952.401 2110.32 951.792 2110.32 962.886 2110.32 973.98 2138.6 973.98C2158.25 973.98 2168.07 973.113 2170.78 971.128ZM2199.73 1002.27C2194.09 995.569 2193.85 994.276 2194.57 974.731 2195.63 945.686 2197.1 944.426 2230.87 943.442 2270.39 942.283 2274.79 945.836 2274.79 978.935 2274.79 997.796 2274.53 998.872 2268.59 1003.97 2262.75 1009 2260.83 1009.29 2234.03 1009.29L2205.64 1009.29ZM2262.16 999.239C2266.54 996.169 2267.07 993.9 2267.07 977.893 2267.07 952.417 2266.42 951.909 2234.05 951.909 2217 951.909 2207.45 952.801 2205.69 954.561 2204.05 956.205 2203.05 964.304 2203.05 975.899 2203.05 1001.98 2203.84 1002.68 2233.8 1002.68 2251.46 1002.68 2258.46 1001.82 2262.16 999.239ZM2283.69 1001.18C2285.66 996.536 2291.86 981.563 2297.46 967.908 2305.34 948.756 2308.61 943.083 2311.8 943.083 2316.79 943.083 2317.05 942.182 2301.44 979.494 2291.94 1002.22 2288.47 1008.34 2284.77 1008.91 2280.2 1009.62 2280.17 1009.47 2283.69 1001.18ZM2073.35 988.737C2064.55 983.79 2057.34 978.477 2057.34 976.934 2057.34 973.722 2088.19 956.03 2090.89 957.689 2095.02 960.25 2092.07 964.746 2083.82 968.467 2069.1 975.107 2068.75 977.392 2081.46 983.824 2091.59 988.962 2095.43 994.167 2091.01 996.761 2090.1 997.295 2082.15 993.683 2073.35 988.737ZM2319.11 996.586C2315.64 993.108 2318.91 988.962 2329.28 983.707L2340.72 977.918 2335.35 973.814C2332.4 971.561 2327.25 968.567 2323.91 967.165 2320.35 965.672 2317.84 962.903 2317.84 960.467 2317.84 958.19 2318.44 956.321 2319.18 956.321 2319.92 956.321 2327.39 960.05 2335.78 964.596 2347.23 970.802 2350.9 973.914 2350.45 977.025 2349.83 981.288 2321.5 998.972 2319.11 996.586ZM2384.42 874.132C2378.76 864.99 2378.58 863.63 2382.96 863.63 2385.77 863.63 2386.27 858.108 2386.27 827.212L2386.27 790.796 2261.54 790.796C2179.87 790.796 2136.82 790.034 2136.82 788.589 2136.82 787.143 2180.6 786.382 2263.75 786.382L2390.69 786.382 2390.69 825.005C2390.69 857.866 2391.18 863.63 2394 863.63 2398.19 863.63 2398.07 865.173 2393.16 874.39L2389.18 881.839Z" fill="#FFFFFF" fill-rule="evenodd"/><path d="M2313.12 1166.39C2305.27 1161.34 2305.3 1159.54 2313.25 1154.7 2321.5 1149.69 2322.18 1149.62 2322.18 1153.86 2322.18 1156.64 2327.21 1157.16 2354.19 1157.16L2386.19 1157.16 2386.19 1030.26C2386.19 947.124 2386.95 903.347 2388.4 903.347 2389.84 903.347 2390.6 947.858 2390.6 1032.46L2390.6 1161.58 2356.39 1161.58C2323.66 1161.58 2322.18 1161.77 2322.18 1166 2322.18 1171.23 2320.76 1171.3 2313.12 1166.39ZM2015.4 1128.47C2015.4 1100.51 2014.88 1095.37 2012.09 1095.37 2007.96 1095.37 2007.96 1094.51 2012.14 1086.43 2017.08 1076.89 2018.05 1077.41 2025.99 1093.71 2026.44 1094.62 2025.23 1095.37 2023.31 1095.37 2020.28 1095.37 2019.81 1099.54 2019.81 1126.26L2019.81 1157.16 2152.24 1157.16C2239.05 1157.16 2284.66 1157.92 2284.66 1159.37 2284.66 1160.82 2238.31 1161.58 2150.03 1161.58L2015.4 1161.58ZM2015.4 922.107 2015.4 786.374 2052.92 786.374C2084.8 786.374 2090.44 785.875 2090.44 783.063 2090.44 778.691 2091.8 778.871 2100.81 784.435L2108.38 789.117 2101.56 793.263C2093.33 798.273 2090.44 798.49 2090.44 794.098 2090.44 791.294 2085.04 790.787 2055.13 790.787L2019.81 790.787 2019.81 924.318C2019.81 1011.86 2019.05 1057.84 2017.61 1057.84 2016.16 1057.84 2015.4 1011.13 2015.4 922.107ZM2101.97 976.737 2102.58 944.18 2137.38 943.57 2172.19 942.962 2177.89 948.659C2182.8 953.572 2183.39 955.625 2182.23 963.616 2180.6 974.894 2180.6 976.771 2182.24 989.767 2183.33 998.326 2182.77 1000.82 2178.93 1004.67 2174.61 1008.99 2171.91 1009.29 2137.83 1009.29L2101.35 1009.29ZM2173.21 991.636 2173.21 981.701 2141.75 981.092 2110.3 980.475 2110.3 991.636 2110.3 1002.79 2141.75 1002.18 2173.21 1001.56ZM2170.75 971.124C2173.49 969.113 2174.44 965.993 2173.93 960.638L2173.21 953.005 2141.75 952.396 2110.3 951.787 2110.3 962.882 2110.3 973.976 2138.57 973.976C2158.22 973.976 2168.04 973.109 2170.75 971.124ZM2199.88 1002.5C2194.8 996.449 2194.17 993.805 2194.17 978.322 2194.17 947.299 2199.18 943.078 2235.96 943.078 2259.43 943.078 2260.56 943.296 2267.04 949.143 2272.32 953.914 2274.05 957.652 2275.08 966.594 2277 983.119 2274.23 997.859 2268.04 1004.05 2263.06 1009.03 2261.35 1009.29 2234.19 1009.29L2205.6 1009.29ZM2262.97 999.018C2266.26 996.04 2267.01 991.986 2267.01 977.104 2267.01 952.087 2266.77 951.904 2234.19 951.904 2216.99 951.904 2207.41 952.797 2205.65 954.557 2201.36 958.844 2202.15 993.654 2206.66 998.635 2211.82 1004.34 2256.75 1004.65 2262.97 999.018ZM2292.81 980.049C2299.53 963.958 2305.52 949.059 2306.13 946.941 2307.04 943.796 2315.56 941.051 2315.56 943.904 2315.56 944.355 2310.01 958.019 2303.22 974.252 2296.44 990.485 2290.38 1005.02 2289.75 1006.53 2289.12 1008.04 2286.81 1009.29 2284.6 1009.29 2281.16 1009.29 2282.28 1005.26 2292.81 980.049ZM2074.99 989.292C2060.34 981.234 2055.63 976.938 2058.53 974.285 2064.67 968.688 2090.23 956.4 2091.49 958.435 2093.73 962.064 2090.95 964.817 2078.87 970.932L2067.61 976.637 2080.13 983.352C2087.01 987.048 2092.65 991.419 2092.65 993.062 2092.65 997.567 2088.37 996.649 2074.99 989.292ZM2317.77 993.062C2317.77 991.419 2323.3 987.106 2330.06 983.477L2342.35 976.879 2330.07 970.465C2318.55 964.45 2315.79 961.238 2319.2 957.835 2321.72 955.307 2350.85 972.583 2350.86 976.629 2350.87 978.948 2345.54 983.361 2336.87 988.216 2321.72 996.691 2317.77 997.692 2317.77 993.062ZM2383.35 872.657C2378.72 864.816 2378.66 863.623 2382.88 863.623 2385.69 863.623 2386.19 858.101 2386.19 827.205L2386.19 790.787 2261.49 790.787C2179.83 790.787 2136.79 790.026 2136.79 788.581 2136.79 787.135 2180.56 786.374 2263.7 786.374L2390.6 786.374 2390.6 824.997C2390.6 857.859 2391.09 863.623 2393.91 863.623 2398.04 863.623 2398.03 864.474 2393.86 872.557 2389.65 880.682 2388.1 880.699 2383.35 872.657Z" fill="#FFFFFF" fill-rule="evenodd"/><path d="M2312.85 1165.85C2308.3 1163.49 2304.58 1161.12 2304.58 1160.56 2304.58 1160.01 2308.55 1157.53 2313.41 1155.06 2320.79 1151.28 2322.23 1151.09 2322.23 1153.9 2322.23 1156.76 2327.06 1157.26 2354.21 1157.26L2386.2 1157.26 2386.2 1030.31C2386.2 947.146 2386.95 903.352 2388.4 903.352 2389.85 903.352 2390.61 947.88 2390.61 1032.51L2390.61 1161.68 2356.57 1161.68C2324.78 1161.68 2322.48 1161.96 2321.83 1165.9 2321.13 1170.04 2320.98 1170.04 2312.85 1165.85ZM2015.62 1128.56C2015.62 1100.59 2015.1 1095.44 2012.31 1095.44 2010.49 1095.44 2009 1094.85 2009 1094.12 2009 1091.89 2016.49 1079.99 2017.89 1079.99 2018.62 1079.99 2020.87 1083.47 2022.89 1087.71 2026.06 1094.36 2026.12 1095.44 2023.3 1095.44 2020.56 1095.44 2020.03 1100.5 2020.03 1126.35L2020.03 1157.26 2152.38 1157.26C2239.14 1157.26 2284.73 1158.02 2284.73 1159.47 2284.73 1160.91 2238.41 1161.68 2150.17 1161.68L2015.62 1161.68ZM2015.62 922.12 2015.62 786.337 2053.12 786.337C2084.98 786.337 2090.62 785.839 2090.62 783.025 2090.62 778.756 2091.05 778.818 2100.53 784.414L2108.49 789.116 2101.71 793.246C2093.5 798.241 2090.62 798.453 2090.62 794.064 2090.62 791.259 2085.22 790.752 2055.32 790.752L2020.03 790.752 2020.03 924.331C2020.03 1011.91 2019.27 1057.91 2017.82 1057.91 2016.38 1057.91 2015.62 1011.18 2015.62 922.12ZM2102.14 976.77 2102.75 944.2 2137.53 943.591 2172.32 942.982 2178.01 948.681C2182.93 953.613 2183.52 955.624 2182.32 963.643 2180.96 972.789 2180.91 974.709 2181.65 993.551 2182.24 1008.49 2179.87 1009.33 2137.56 1009.33L2101.53 1009.33ZM2173.34 991.673 2173.34 981.735 2141.9 981.126 2110.47 980.508 2110.47 991.673 2110.47 1002.83 2141.9 1002.22 2173.34 1001.6ZM2171.84 972.097C2173.65 970.937 2174.48 967.031 2174.04 961.641L2173.34 953.029 2141.9 952.42 2110.47 951.81 2110.47 962.909 2110.47 974.008 2139.7 973.974C2155.77 973.957 2170.23 973.106 2171.84 972.097ZM2201.58 1004.01C2195.85 999.075 2195.34 997.273 2194.63 980.024 2193.29 947.304 2199.3 942.247 2238.07 943.449 2260.17 944.133 2262.83 944.676 2268.01 949.557 2273.38 954.606 2273.7 956.133 2273.7 976.703 2273.7 996.897 2273.3 998.892 2268.29 1003.92 2263.12 1009.09 2261.63 1009.33 2235.32 1009.33 2209.38 1009.33 2207.41 1009.02 2201.58 1004.01ZM2263.05 999.059C2266.33 996.079 2267.08 992.024 2267.08 977.137 2267.08 952.111 2266.84 951.927 2234.28 951.927 2217.1 951.927 2207.52 952.82 2205.76 954.581 2201.57 958.77 2202.23 994.895 2206.58 999.242 2211.74 1004.42 2257.3 1004.27 2263.05 999.059ZM2293.59 978.514C2300.64 961.565 2307.05 946.662 2307.83 945.402 2309.85 942.122 2316.3 942.531 2315.01 945.861 2300.08 984.146 2288.04 1009.33 2284.66 1009.33 2281.37 1009.33 2282.74 1004.58 2293.59 978.514ZM2072.96 987.752C2065.08 983.162 2058.63 978.163 2058.63 976.645 2058.63 973.407 2089.38 955.841 2091.43 957.902 2094.44 960.906 2092.35 963.201 2080.5 969.894L2068.18 976.853 2080.5 983.687C2087.28 987.443 2092.82 991.774 2092.82 993.301 2092.82 997.874 2088.07 996.547 2072.96 987.752ZM2317.82 993.301C2317.82 991.774 2323.44 987.401 2330.31 983.587L2342.81 976.661 2331.57 970.962C2319.61 964.895 2316.74 962.083 2318.91 958.578 2320.93 955.29 2350.82 972.13 2350.86 976.578 2350.89 978.814 2345.39 983.337 2336.76 988.169 2321.58 996.664 2317.82 997.682 2317.82 993.301ZM2383.86 872.994C2382.19 869.656 2380.46 866.176 2380.02 865.267 2379.58 864.357 2380.78 863.614 2382.7 863.614 2385.75 863.614 2386.2 858.942 2386.2 827.183L2386.2 790.752 2261.57 790.752C2179.96 790.752 2136.94 789.99 2136.94 788.545 2136.94 787.099 2180.69 786.337 2263.78 786.337L2390.61 786.337 2390.61 824.975C2390.61 857.848 2391.1 863.614 2393.92 863.614 2398.04 863.614 2398.03 864.466 2393.86 872.552 2389.68 880.638 2387.73 880.721 2383.86 872.994Z" fill="#FFFFFF" fill-rule="evenodd"/><path d="M2310.52 1164.74C2303.36 1160.86 2304.01 1158.87 2313.71 1154.85 2319.1 1152.61 2320.99 1152.55 2321.67 1154.57 2322.29 1156.45 2331.61 1157.2 2354.37 1157.2L2386.19 1157.2 2386.19 1030.25C2386.19 947.088 2386.95 903.294 2388.4 903.294 2389.84 903.294 2390.6 947.823 2390.6 1032.46L2390.6 1161.63 2356.39 1161.63C2327.45 1161.63 2322.18 1162.14 2322.18 1164.93 2322.18 1169.09 2318.41 1169.02 2310.52 1164.74ZM2015.36 1128.51C2015.36 1100.53 2014.85 1095.39 2012.05 1095.39 2007.8 1095.39 2007.87 1094.71 2012.99 1086.29L2017.25 1079.3 2021.82 1086.79C2025.65 1093.06 2025.86 1094.4 2023.09 1094.99 2020.34 1095.59 2019.78 1100.92 2019.78 1126.46L2019.78 1157.2 2152.21 1157.2C2239.03 1157.2 2284.65 1157.96 2284.65 1159.42 2284.65 1160.86 2238.3 1161.63 2150.01 1161.63L2015.36 1161.63ZM2015.36 922.195 2015.36 786.277 2052.89 786.277C2085.65 786.277 2090.41 785.833 2090.41 782.781 2090.41 780.859 2091.16 779.648 2092.07 780.092 2108.38 788.041 2108.89 789.014 2099.35 793.948 2091.27 798.129 2090.41 798.135 2090.41 794.004 2090.41 791.199 2085.02 790.693 2055.09 790.693L2019.78 790.693 2019.78 923.038C2019.78 1008.88 2019 1055.86 2017.57 1056.75 2016.11 1057.65 2015.36 1012.24 2015.36 922.195ZM2103.65 976.162 2103.65 943.041 2137.97 943.041C2171.46 943.041 2172.41 943.166 2177.7 948.457 2183.88 954.64 2184.95 965.931 2180.03 972.965 2177.37 976.746 2177.37 977.981 2180.03 981.602 2185.22 988.721 2182.84 1002.76 2175.61 1007.59 2174.28 1008.48 2157.54 1009.22 2138.42 1009.24L2103.65 1009.27ZM2174.69 997.133C2176.57 993.002 2176.57 990.223 2174.69 986.092 2172.18 980.585 2172.09 980.576 2141.23 980.576L2110.28 980.576 2110.28 991.617 2110.28 1002.66 2141.23 1002.66C2172.09 1002.66 2172.18 1002.64 2174.69 997.133ZM2171.97 971.856C2175.35 969.719 2176.43 955.491 2173.44 952.495 2172.5 951.544 2157.9 950.443 2141 950.051L2110.28 949.325 2110.28 961.642 2110.28 973.95 2139.52 973.917C2155.61 973.9 2170.21 972.974 2171.97 971.856ZM2201.45 1003.95C2195.66 998.968 2195.21 997.341 2194.49 978.832 2193.75 959.464 2193.88 958.871 2200.38 951.586L2207.03 944.142 2235 944.142C2262.9 944.142 2262.98 944.159 2268.29 950.334 2273.11 955.942 2273.61 958.521 2273.61 977.489 2273.61 996.79 2273.19 998.868 2268.2 1003.86 2263.03 1009.03 2261.54 1009.27 2235.21 1009.27 2209.25 1009.27 2207.28 1008.97 2201.45 1003.95ZM2262.96 999.002C2266.24 996.031 2267 991.975 2267 977.338 2267 951.11 2266.59 950.768 2235.25 950.768 2202.5 950.768 2201.88 951.269 2201.88 977.522 2201.88 1002.2 2202.48 1002.66 2234.69 1002.66 2254.14 1002.66 2259.71 1001.93 2262.96 999.002ZM2294.18 977.021C2306.01 948.615 2311.15 940.103 2314.47 943.433 2314.99 943.95 2309.33 958.971 2301.89 976.821 2291.87 1000.91 2287.4 1009.27 2284.57 1009.27 2281.38 1009.27 2282.98 1003.89 2294.18 977.021ZM2073.86 988.295C2065.72 983.631 2060.61 979.233 2060.61 976.896 2060.61 972.882 2087.67 955.692 2090.87 957.678 2094.76 960.081 2092.02 963.21 2080.21 969.878L2067.81 976.879 2080.18 983.697C2091.55 989.956 2094.45 993.686 2089.17 995.271 2088.03 995.605 2081.14 992.468 2073.86 988.295ZM2317.76 993.244C2317.76 991.717 2323.31 987.385 2330.09 983.631L2342.42 976.796 2330.09 969.836C2318.45 963.261 2315.61 960.04 2319.41 957.77 2322.18 956.117 2349.7 972.799 2350.42 976.545 2350.87 978.891 2346.29 982.687 2336.56 988.037 2320.84 996.682 2317.76 997.533 2317.76 993.244ZM2383.85 872.935C2382.18 869.597 2380.45 866.117 2380.01 865.208 2379.56 864.299 2380.77 863.556 2382.69 863.556 2385.74 863.556 2386.19 858.883 2386.19 827.123L2386.19 790.692 2261.47 790.692C2179.81 790.692 2136.76 789.93 2136.76 788.485 2136.76 787.039 2180.54 786.277 2263.69 786.277L2390.6 786.277 2390.6 824.915C2390.6 857.789 2391.09 863.556 2393.91 863.556 2398.13 863.556 2398.08 864.749 2393.44 872.593 2388.76 880.529 2387.68 880.563 2383.85 872.935Z" fill="#FFFFFF" fill-rule="evenodd"/><path d="M2310.37 1164.12 2304.27 1160.09 2312.34 1155.85C2318.37 1152.69 2320.66 1152.32 2321.39 1154.39 2322.11 1156.42 2330.72 1157.14 2354.17 1157.14L2385.97 1157.14 2385.97 1030.22C2385.97 947.084 2386.73 903.302 2388.18 903.302 2389.62 903.302 2390.38 947.818 2390.38 1032.43L2390.38 1161.56 2356.19 1161.56C2327.26 1161.56 2321.99 1162.07 2321.99 1164.86 2321.99 1169.29 2317.8 1169.02 2310.37 1164.12ZM2015.36 1128.45C2015.36 1100.48 2014.84 1095.34 2012.05 1095.34 2007.81 1095.34 2007.88 1094.66 2012.99 1086.24L2017.24 1079.25 2021.82 1086.74C2025.64 1093.01 2025.85 1094.35 2023.08 1094.95 2020.33 1095.54 2019.77 1100.87 2019.77 1126.41L2019.77 1157.14 2152.13 1157.14C2238.9 1157.14 2284.49 1157.9 2284.49 1159.35 2284.49 1160.79 2238.17 1161.56 2149.93 1161.56L2015.36 1161.56ZM2015.36 920.963 2015.36 786.319 2052.86 786.319C2084.54 786.319 2090.36 785.811 2090.36 783.044 2090.36 780.227 2091.44 780.284 2098.08 783.453 2107.5 787.944 2107.69 789.645 2099.3 793.988 2091.22 798.168 2090.36 798.174 2090.36 794.044 2090.36 791.24 2084.97 790.734 2055.07 790.734L2019.77 790.734 2019.77 923.174C2019.77 1009.99 2019.01 1055.61 2017.57 1055.61 2016.12 1055.61 2015.36 1009.25 2015.36 920.963ZM2103.6 976.149 2103.6 943.038 2136.14 943.071C2157.86 943.096 2170.51 944.03 2174.19 945.882 2181.75 949.695 2184.81 962.167 2180.36 971.093 2177.58 976.649 2177.53 978.318 2180.04 981.746 2184.36 987.661 2183.69 996.763 2178.44 1003.44L2173.87 1009.25 2138.74 1009.25 2103.6 1009.25ZM2174.59 997.113C2176.48 992.984 2176.48 990.206 2174.59 986.076 2172.09 980.57 2172 980.562 2141.15 980.562L2110.22 980.562 2110.22 991.599 2110.22 1002.64 2141.15 1002.64C2172 1002.64 2172.09 1002.62 2174.59 997.113ZM2172.93 970.467C2174.84 968.566 2176.4 964.661 2176.4 961.8 2176.4 951.146 2171.92 949.661 2139.84 949.661L2110.22 949.661 2110.22 961.8 2110.22 973.938 2139.84 973.938C2163.83 973.938 2170.12 973.279 2172.93 970.467ZM2201.34 1003.93C2195.36 998.782 2195.15 997.881 2195.15 977.492 2195.15 957.362 2195.44 956.094 2201.26 950.262 2207.3 944.222 2207.75 944.138 2235.1 944.138 2262.73 944.138 2262.83 944.155 2268.14 950.329 2272.96 955.935 2273.46 958.513 2273.46 977.475 2273.46 996.771 2273.03 998.849 2268.05 1003.84 2262.88 1009.01 2261.4 1009.25 2235.08 1009.25 2209.13 1009.25 2207.17 1008.94 2201.34 1003.93ZM2262.81 998.982C2268.46 993.868 2268.77 958.421 2263.2 953.791 2260.76 951.755 2251.74 950.521 2235.72 950.02 2212.43 949.286 2211.74 949.403 2206.04 955.109 2200.53 960.623 2200.26 961.933 2201.01 978.677 2202.07 1002.02 2202.92 1002.64 2234.56 1002.64 2254 1002.64 2259.57 1001.91 2262.81 998.982ZM2282.29 1007.35C2282.29 1002.79 2308.17 944.339 2310.54 943.546 2311.99 943.063 2313.18 943.989 2313.19 945.607 2313.23 951.78 2287.93 1009.25 2285.17 1009.25 2283.58 1009.25 2282.29 1008.4 2282.29 1007.35ZM2073.82 988.195C2065.64 983.557 2060.58 979.219 2060.58 976.866 2060.58 972.945 2087.72 955.851 2090.92 957.762 2094.62 959.973 2091.96 962.926 2080.13 969.7L2067.69 976.816 2080.1 983.657C2091.45 989.914 2094.48 993.776 2089.12 995.17 2087.99 995.462 2081.1 992.325 2073.82 988.195ZM2317.62 993.251C2317.63 991.732 2323.21 987.428 2330.01 983.682L2342.38 976.866 2329.98 969.867C2318.19 963.209 2315.97 960.832 2318.85 957.954 2320.88 955.927 2349.5 973.045 2350.23 976.716 2350.66 978.843 2345.69 982.898 2336.37 988.02 2320.69 996.646 2317.57 997.514 2317.62 993.251ZM2383.1 871.301C2379.94 864.651 2379.88 863.576 2382.69 863.576 2385.46 863.576 2385.97 857.878 2385.97 827.154L2385.97 790.733 2261.33 790.733C2179.71 790.733 2136.69 789.971 2136.69 788.527 2136.69 787.081 2180.44 786.319 2263.54 786.319L2390.38 786.319 2390.38 824.946C2390.38 857.811 2390.87 863.576 2393.69 863.576 2395.51 863.576 2397 864.168 2397 864.885 2397 867.121 2389.51 879.026 2388.11 879.026 2387.38 879.026 2385.13 875.547 2383.1 871.301Z" fill="#FFFFFF" fill-rule="evenodd"/><path d="M2311.2 1164.07 2306.14 1159.97 2312.29 1155.93C2318.02 1152.18 2318.59 1152.15 2320.52 1155.62 2322.32 1158.84 2326.88 1159.34 2354.47 1159.34L2386.32 1159.34 2386.32 1032.48C2386.32 950.289 2387.1 905.148 2388.53 904.263 2389.99 903.354 2390.73 946.566 2390.73 1032.22L2390.73 1161.55 2355.46 1161.55C2325.57 1161.55 2320.18 1162.05 2320.18 1164.86 2320.18 1169.29 2317.32 1169.04 2311.2 1164.07ZM2015.92 1128.58C2015.92 1101.95 2015.32 1095.48 2012.79 1094.9 2010.21 1094.32 2010.36 1092.86 2013.64 1086.55L2017.62 1078.9 2022.28 1086.55C2026.17 1092.92 2026.39 1094.31 2023.63 1094.9 2020.88 1095.5 2020.32 1100.94 2020.32 1127.46L2020.32 1159.31 2153.16 1159.89 2286.01 1160.48 2150.96 1161.01 2015.92 1161.54ZM2015.92 920.824 2015.92 786.106 2053.21 786.106C2080.22 786.106 2090.75 785.377 2091.39 783.461 2092.06 781.44 2093.93 781.503 2099.29 783.729 2108 787.344 2108.11 789.476 2099.81 793.779 2091.73 797.961 2090.88 797.968 2090.88 793.836 2090.88 791.029 2085.49 790.523 2055.6 790.523L2020.32 790.523 2020.32 923.036C2020.32 1009.9 2019.57 1055.54 2018.12 1055.54 2016.67 1055.54 2015.92 1009.16 2015.92 920.824ZM2104.11 976.04 2104.11 942.91 2136.63 942.943C2158.34 942.969 2170.99 943.904 2174.66 945.756 2182.12 949.521 2185.27 962.041 2180.95 970.764 2178.31 976.089 2178.27 978.051 2180.69 982.659 2184.12 989.178 2182.69 999.52 2177.6 1005.15 2174.39 1008.71 2169.99 1009.16 2139.04 1009.16L2104.11 1009.16ZM2174.22 999.887C2175.68 998.426 2176.87 994.654 2176.87 991.498 2176.87 981.398 2173.81 980.455 2141.15 980.455L2110.72 980.455 2110.72 991.498 2110.72 1002.54 2141.15 1002.54C2161.87 1002.54 2172.42 1001.69 2174.22 999.887ZM2173.4 970.355C2175.31 968.452 2176.87 964.546 2176.87 961.682 2176.87 951.023 2172.39 949.538 2140.33 949.538L2110.72 949.538 2110.72 961.682 2110.72 973.828 2140.33 973.828C2164.3 973.828 2170.59 973.168 2173.4 970.355ZM2202.27 1003.89C2195.89 997.508 2193.67 986.949 2194.94 969.237 2195.72 958.494 2197.04 954.821 2201.87 949.988 2207.31 944.53 2209.55 943.945 2227.74 943.236 2252.58 942.267 2261.91 943.97 2268.61 950.681 2273.42 955.497 2273.88 957.776 2273.88 976.741 2273.88 996.248 2273.53 997.875 2268.07 1003.34 2262.41 1009 2261.52 1009.16 2234.89 1009.16 2208.99 1009.16 2207.25 1008.89 2202.27 1003.89ZM2263.8 999.069C2266.43 996.431 2267.27 990.872 2267.27 976.006 2267.27 950.422 2266.18 949.538 2234.7 949.538 2213.48 949.538 2211.58 949.897 2206.54 954.955 2201.77 959.721 2201.12 962.325 2201.12 976.549 2201.12 1001.69 2202.19 1002.54 2234.16 1002.54 2255.02 1002.54 2261.04 1001.83 2263.8 999.069ZM2282.7 1007.51C2282.72 1003.13 2308.73 944.154 2310.98 943.402 2312.41 942.927 2313.57 943.862 2313.58 945.481 2313.62 951.658 2288.33 1009.16 2285.58 1009.16 2283.99 1009.16 2282.7 1008.42 2282.7 1007.51ZM2074.34 988.093C2066.56 983.669 2061.11 979.078 2061.11 976.932 2061.11 973.143 2089.48 955.497 2091.82 957.834 2094.57 960.598 2092.6 962.634 2080.65 969.395L2068.21 976.423 2074.57 980.597C2078.06 982.901 2083.7 985.931 2087.09 987.333 2092.88 989.737 2094.24 993.869 2089.64 995.071 2088.5 995.363 2081.62 992.224 2074.34 988.093ZM2318.89 993.401C2317.96 991.89 2318.12 990.329 2319.24 989.929 2320.36 989.528 2326.09 986.373 2331.97 982.909L2342.66 976.607 2330.32 969.537C2318.48 962.751 2316.47 960.623 2319.24 957.834 2321.23 955.84 2349.87 972.901 2350.59 976.507 2351.11 979.111 2336.37 988.902 2322.04 995.479 2321.24 995.847 2319.82 994.912 2318.89 993.401ZM2383.46 871.134C2380.3 864.482 2380.24 863.405 2383.05 863.405 2385.81 863.405 2386.32 857.704 2386.32 826.963L2386.32 790.523 2261.75 790.523C2180.18 790.523 2137.18 789.761 2137.18 788.315 2137.18 786.868 2180.91 786.106 2263.96 786.106L2390.73 786.106 2390.73 824.755C2390.73 858.538 2391.17 863.405 2394.22 863.405 2396.15 863.405 2397.36 864.148 2396.91 865.057 2388.85 881.635 2388.53 881.776 2383.46 871.134Z" fill="#FFFFFF" fill-rule="evenodd"/><path d="M2311.65 1164.16 2306.48 1160.18 2312.51 1156.22C2318.02 1152.61 2318.72 1152.58 2320.54 1155.84 2322.23 1158.87 2327.34 1159.41 2354.39 1159.41L2386.24 1159.41 2386.24 1032.61C2386.24 950.454 2387.01 905.334 2388.45 904.45 2389.9 903.541 2390.65 946.733 2390.65 1032.35L2390.65 1161.62 2355.38 1161.62C2325.5 1161.62 2320.12 1162.12 2320.12 1164.92 2320.12 1169.24 2317.99 1169.04 2311.65 1164.16ZM2015.94 1128.66C2015.94 1102.04 2015.34 1095.57 2012.82 1095 2010.23 1094.41 2010.35 1093.03 2013.55 1086.87L2017.41 1079.46 2022.12 1086.87C2025.97 1092.94 2026.24 1094.42 2023.59 1095 2020.92 1095.59 2020.35 1101.34 2020.35 1127.55L2020.35 1159.37 2153.15 1159.96 2285.95 1160.54 2150.95 1161.08 2015.94 1161.61ZM2015.94 921.003 2015.94 786.348 2053.41 786.348C2076.92 786.348 2090.88 785.525 2090.88 784.141 2090.88 780.608 2096.58 781.584 2102.1 786.064L2107.19 790.194 2100.25 793.789C2091.71 798.211 2090.88 798.236 2090.88 794.074 2090.88 791.269 2085.5 790.763 2055.62 790.763L2020.35 790.763 2020.35 923.214C2020.35 1010.03 2019.59 1055.66 2018.15 1055.66 2016.7 1055.66 2015.94 1009.3 2015.94 921.003ZM2104.11 976.193 2104.11 943.079 2134.64 943.079C2169.89 943.079 2177.75 944.99 2181.01 954.384 2183.34 961.05 2182.12 973.181 2178.95 975.15 2177.99 975.742 2178.71 979.246 2180.55 982.934 2184.25 990.376 2183.03 999.22 2177.43 1005.44 2174.4 1008.81 2169.5 1009.3 2139.03 1009.3L2104.11 1009.3ZM2174.2 1000.03C2175.66 998.569 2176.85 994.798 2176.85 991.644 2176.85 981.549 2173.79 980.606 2141.14 980.606L2110.72 980.606 2110.72 991.644 2110.72 1002.68 2141.14 1002.68C2161.85 1002.68 2172.4 1001.83 2174.2 1000.03ZM2174.56 969.71C2177.84 963.586 2177.38 957.17 2173.38 953.166 2170.57 950.362 2164.29 949.703 2140.32 949.703L2110.72 949.703 2110.72 961.843 2110.72 973.982 2141.5 973.982C2169.68 973.982 2172.47 973.623 2174.56 969.71ZM2202.24 1004.03C2195.77 997.551 2193.53 986.538 2195.12 969.026 2196.05 958.664 2197.57 954.425 2201.93 950.062 2206.92 945.064 2209.74 944.339 2227.36 943.496 2251.93 942.32 2261.8 944.08 2268.56 950.846 2273.35 955.644 2273.82 957.963 2273.82 976.518 2273.82 995.649 2273.46 997.301 2267.9 1003.11 2262.05 1009.24 2261.71 1009.3 2234.75 1009.3 2208.96 1009.3 2207.22 1009.01 2202.24 1004.03ZM2263.75 999.211C2266.38 996.575 2267.22 991.018 2267.22 976.159 2267.22 950.588 2266.13 949.703 2234.66 949.703 2213.44 949.703 2211.54 950.062 2206.5 955.118 2201.74 959.882 2201.09 962.485 2201.09 976.702 2201.09 1001.83 2202.16 1002.68 2234.12 1002.68 2254.97 1002.68 2261 1001.97 2263.75 999.211ZM2283.63 1005.24C2288.22 990.76 2308.78 944.289 2310.91 943.571 2315.39 942.078 2313.85 947.459 2300.9 978.812 2293.51 996.675 2287.06 1009.3 2285.32 1009.3 2283.44 1009.3 2282.82 1007.81 2283.63 1005.24ZM2073.72 987.665C2065.29 982.834 2060.12 978.479 2060.5 976.518 2061.15 973.214 2085.42 958.606 2090.33 958.555 2096.32 958.497 2092.5 962.852 2080.74 969.502 2073.95 973.34 2069.04 977.119 2069.83 977.911 2070.61 978.696 2075.91 981.858 2081.6 984.936 2090.98 990.017 2094.18 994.231 2089.4 995.215 2088.4 995.424 2081.34 992.028 2073.72 987.665ZM2319.43 994.631C2316.66 991.861 2317.84 989.992 2323.99 987.448 2327.33 986.063 2332.92 983.051 2336.42 980.748L2342.78 976.577 2330.34 969.552C2318.64 962.936 2314.69 958.53 2320.45 958.53 2325.22 958.53 2350.97 974.191 2350.97 977.094 2350.97 979.33 2336.04 988.908 2322.18 995.549 2321.5 995.883 2320.26 995.466 2319.43 994.631ZM2384.2 872.204C2380.37 865.938 2380.17 864.595 2382.93 864.003 2385.71 863.402 2386.24 857.47 2386.24 827.024L2386.24 790.763 2261.7 790.763C2180.16 790.763 2137.17 790.001 2137.17 788.556 2137.17 787.11 2180.89 786.348 2263.91 786.348L2390.65 786.348 2390.65 824.979C2390.65 857.845 2391.14 863.611 2393.95 863.611 2398.19 863.611 2398.13 864.286 2393.01 872.705L2388.76 879.696Z" fill="#FFFFFF" fill-rule="evenodd"/><path d="M2311.64 1164.16 2306.48 1160.18 2312.51 1156.22C2318.02 1152.61 2318.71 1152.58 2320.54 1155.84 2322.23 1158.87 2327.34 1159.41 2354.39 1159.41L2386.23 1159.41 2386.23 1032.48C2386.23 949.328 2386.99 905.552 2388.44 905.552 2389.88 905.552 2390.64 949.703 2390.64 1033.59L2390.64 1161.62 2355.38 1161.62C2325.5 1161.62 2320.11 1162.12 2320.11 1164.92 2320.11 1169.24 2317.98 1169.04 2311.64 1164.16ZM2015.94 1128.66C2015.94 1102.04 2015.34 1095.57 2012.82 1095 2010.23 1094.41 2010.35 1093.03 2013.55 1086.87L2017.41 1079.46 2022.12 1086.87C2025.97 1092.94 2026.24 1094.42 2023.59 1095 2020.92 1095.59 2020.35 1101.34 2020.35 1127.55L2020.35 1159.37 2153.15 1159.96 2285.95 1160.54 2150.94 1161.08 2015.94 1161.61ZM2015.94 921.003 2015.94 786.348 2053.41 786.348C2076.92 786.348 2090.88 785.525 2090.88 784.141 2090.88 780.608 2096.58 781.584 2102.1 786.064L2107.19 790.194 2100.25 793.789C2091.71 798.211 2090.88 798.236 2090.88 794.074 2090.88 791.269 2085.49 790.763 2055.62 790.763L2020.35 790.763 2020.35 923.214C2020.35 1010.03 2019.59 1055.66 2018.15 1055.66 2016.7 1055.66 2015.94 1009.3 2015.94 921.003ZM2104.11 976.193 2104.11 943.079 2134.82 943.079C2164.61 943.079 2176.07 944.956 2179.52 950.387 2182.07 954.409 2181.56 973.531 2178.85 975.208 2177.13 976.276 2177.13 977.361 2178.85 979.088 2180.17 980.406 2181.25 986.105 2181.25 991.744 2181.25 1008.44 2179.16 1009.3 2138.65 1009.3L2104.11 1009.3ZM2174.2 1000.03C2177.6 996.617 2177.6 986.672 2174.2 983.251 2172.39 981.441 2161.61 980.606 2140.03 980.606L2108.52 980.606 2108.52 991.644 2108.52 1002.68 2140.03 1002.68C2161.61 1002.68 2172.39 1001.84 2174.2 1000.03ZM2174.56 969.71C2177.85 963.561 2177.37 957.17 2173.32 953.107 2170.36 950.154 2164.9 949.678 2139.71 950.187L2109.62 950.805 2108.95 962.393 2108.28 973.982 2140.28 973.982C2169.67 973.982 2172.46 973.632 2174.56 969.71ZM2202.27 1004.06C2192.15 993.93 2191.87 960.132 2201.83 950.162 2206.19 945.79 2210.02 944.706 2224.72 943.696 2248.28 942.078 2262.06 944.339 2268.59 950.88 2273.36 955.66 2273.82 957.971 2273.82 976.994 2273.82 997.593 2273.74 997.943 2267.04 1003.58 2260.58 1009.04 2259.04 1009.3 2233.88 1009.3 2209.05 1009.3 2207.19 1008.99 2202.27 1004.06ZM2263.75 999.211C2266.37 996.575 2267.22 991.018 2267.22 976.159 2267.22 950.588 2266.12 949.703 2234.66 949.703 2213.44 949.703 2211.54 950.062 2206.5 955.118 2201.74 959.882 2201.09 962.485 2201.09 976.702 2201.09 1001.83 2202.16 1002.68 2234.12 1002.68 2254.97 1002.68 2260.99 1001.97 2263.75 999.211ZM2283.79 1004.73C2288.14 991.002 2308.99 944.214 2311.07 943.521 2315.24 942.128 2313.87 946.8 2300.82 978.496 2293.61 996.016 2286.9 1009.28 2285.25 1009.29 2283.31 1009.3 2282.83 1007.78 2283.79 1004.73ZM2073.8 987.706C2066.22 983.368 2060.03 978.554 2060.03 977.011 2060.03 972.68 2088.49 957.463 2091.31 960.282 2092.92 961.901 2090.25 964.304 2082.49 968.25 2076.37 971.354 2070.78 974.841 2070.07 975.992 2069.36 977.144 2074 980.882 2080.38 984.311 2090.83 989.917 2094.36 994.189 2089.39 995.215 2088.39 995.424 2081.38 992.045 2073.8 987.706ZM2319.11 994.005C2318.37 992.812 2320.03 990.451 2322.8 988.766 2325.56 987.081 2331.2 983.652 2335.34 981.157L2342.85 976.627 2330.38 969.577C2318.65 962.944 2314.68 958.53 2320.45 958.53 2325.08 958.53 2350.97 974.149 2350.97 976.935 2350.97 980.64 2320.83 996.792 2319.11 994.005ZM2384.19 872.204C2380.37 865.938 2380.16 864.595 2382.93 864.003 2385.7 863.402 2386.23 857.47 2386.23 827.024L2386.23 790.763 2261.26 790.763C2177.25 790.763 2137.02 790.033 2138.51 788.537 2139.96 787.079 2183.69 786.508 2265.13 786.881L2389.54 787.452 2390.14 825.53C2390.65 857.362 2391.28 863.611 2394 863.611 2398.19 863.611 2398.11 864.303 2393.01 872.705L2388.76 879.696Z" fill="#FFFFFF" fill-rule="evenodd"/><path d="M2311.93 1164.16 2306.75 1160.18 2312.8 1156.22C2318.32 1152.61 2319.02 1152.57 2320.84 1155.84 2322.54 1158.87 2327.66 1159.41 2354.76 1159.41L2386.68 1159.41 2386.68 1032.47C2386.68 949.318 2387.44 905.539 2388.89 905.539 2390.33 905.539 2391.09 949.693 2391.09 1033.58L2391.09 1161.62 2355.76 1161.62C2325.81 1161.62 2320.42 1162.12 2320.42 1164.92 2320.42 1169.24 2318.28 1169.04 2311.93 1164.16ZM2015.62 1128.5C2015.62 1100.29 2015.12 1095.39 2012.25 1095.39 2009.24 1095.39 2009.24 1094.68 2012.3 1088.76 2014.19 1085.13 2016.48 1082.15 2017.41 1082.15 2018.33 1082.15 2020.84 1085.13 2022.99 1088.76 2026.42 1094.55 2026.48 1095.39 2023.47 1095.39 2020.52 1095.39 2020.03 1099.9 2020.03 1127.38L2020.03 1159.37 2153.11 1159.96 2286.18 1160.54 2150.9 1161.08 2015.62 1161.61ZM2016.15 921.542 2016.72 787.434 2053.72 786.828C2075.88 786.466 2090.71 785.359 2090.71 784.069 2090.71 780.816 2095.73 781.48 2101.46 785.491L2106.57 789.069 2100.3 793.203C2092.69 798.216 2090.71 798.392 2090.71 794.056 2090.71 791.251 2085.31 790.745 2055.37 790.745L2020.03 790.745 2020.03 923.202C2020.03 1010.71 2019.28 1055.66 2017.81 1055.66 2016.33 1055.66 2015.77 1010.54 2016.15 921.542ZM2103.96 977.285 2103.96 945.271 2139.14 945.271C2168.18 945.271 2174.93 945.88 2177.8 948.742 2181.72 952.663 2182.46 967.615 2179.06 973.981 2177.57 976.751 2177.57 978.57 2179.06 979.488 2180.27 980.239 2181.27 985.612 2181.27 991.419 2181.27 1008.47 2179.32 1009.29 2138.58 1009.29L2103.96 1009.29ZM2174.2 1000.02C2177.61 996.609 2177.61 986.663 2174.2 983.242 2172.39 981.432 2161.59 980.597 2139.97 980.597L2108.38 980.597 2108.38 991.636 2108.38 1002.67 2139.97 1002.67C2161.59 1002.67 2172.39 1001.83 2174.2 1000.02ZM2174.2 971.319C2177.97 967.548 2177.48 957.252 2173.32 953.097 2170.36 950.144 2164.88 949.668 2139.64 950.177L2109.49 950.794 2108.82 962.384 2108.15 973.973 2139.85 973.973C2161.56 973.973 2172.39 973.138 2174.2 971.319ZM2202.15 1003.88C2197.13 998.853 2196.73 996.859 2196.73 976.668 2196.73 956.743 2197.16 954.466 2201.84 950.077 2206.54 945.663 2209.24 945.271 2235.07 945.271 2261.98 945.271 2263.42 945.505 2268.61 950.694 2273.57 955.65 2274.03 957.811 2274.03 976.25 2274.03 995.566 2273.77 996.65 2267.58 1002.84 2261.15 1009.27 2260.99 1009.29 2234.34 1009.29 2208.87 1009.29 2207.31 1009.03 2202.15 1003.88ZM2263.94 999.203C2266.57 996.567 2267.41 991.01 2267.41 976.15 2267.41 950.577 2266.32 949.693 2234.79 949.693 2213.53 949.693 2211.62 950.052 2206.57 955.108 2201.8 959.872 2201.15 962.475 2201.15 976.693 2201.15 1001.82 2202.22 1002.67 2234.24 1002.67 2255.14 1002.67 2261.17 1001.97 2263.94 999.203ZM2283.79 1005.43C2292.68 980.739 2308.87 945.304 2311.26 945.296 2314.78 945.271 2315.19 943.944 2299.93 981.131 2293.17 997.61 2287.15 1009.27 2285.39 1009.27 2283.48 1009.28 2282.9 1007.9 2283.79 1005.43ZM2073.59 987.698C2066 983.359 2059.79 978.545 2059.79 977.001 2059.79 972.671 2088.32 957.452 2091.14 960.273 2092.76 961.891 2090.08 964.294 2082.3 968.241 2076.17 971.345 2070.56 974.832 2069.85 975.983 2069.14 977.135 2073.79 980.873 2080.19 984.302 2090.66 989.909 2094.2 994.181 2089.22 995.207 2088.22 995.416 2081.19 992.036 2073.59 987.698ZM2319.51 994.156C2317.96 991.644 2321.09 989.083 2333.12 983.026 2338.27 980.422 2342.5 977.827 2342.5 977.26 2342.5 976.684 2337.04 973.138 2330.35 969.367 2319.02 962.967 2315.02 958.521 2320.61 958.521 2325.06 958.521 2351.34 974.331 2351.34 977.01 2351.34 980.506 2321.13 996.776 2319.51 994.156ZM2384.72 872.34C2380.82 865.965 2380.6 864.58 2383.36 863.988 2386.14 863.387 2386.68 857.455 2386.68 827.008L2386.68 790.744 2261.44 790.744C2177.26 790.744 2136.94 790.015 2138.44 788.519 2139.9 787.061 2183.71 786.489 2265.32 786.863L2389.99 787.434 2390.59 825.362C2391.07 855.62 2391.82 863.429 2394.27 863.997 2396.78 864.572 2396.62 866.107 2393.37 872.34L2389.39 879.983Z" fill="#FFFFFF" fill-rule="evenodd"/><path d="M2313.21 1164.92C2309.87 1163.16 2307.14 1161.28 2307.14 1160.74 2307.14 1160.2 2310.12 1158.22 2313.77 1156.34 2319.68 1153.29 2320.39 1153.28 2320.39 1156.28 2320.39 1159.15 2325.29 1159.65 2353.51 1159.65L2386.64 1159.65 2386.64 1032.77C2386.64 949.654 2387.4 905.895 2388.86 905.895 2390.3 905.895 2391.06 950.021 2391.06 1033.88L2391.06 1161.85 2355.89 1161.85C2327.31 1161.85 2320.58 1162.44 2320 1164.99 2319.38 1167.69 2318.44 1167.67 2313.21 1164.92ZM2015.62 1128.76C2015.62 1100.56 2015.12 1095.66 2012.25 1095.66 2009.24 1095.66 2009.24 1094.95 2012.3 1089.04 2016.58 1080.78 2017.98 1080.78 2022.69 1089.05 2025.84 1094.58 2025.93 1095.66 2023.24 1095.66 2020.58 1095.66 2020.03 1101.14 2020.03 1127.64L2020.03 1159.62 2153.1 1160.21 2286.16 1160.79 2150.89 1161.33 2015.62 1161.86ZM2016.15 921.891 2016.72 787.842 2054.17 787.235C2079.33 786.827 2092.13 785.798 2093.18 784.099 2094.3 782.292 2096.45 782.687 2100.72 785.482L2106.69 789.393 2100.36 793.568C2095 797.093 2093.91 797.23 2093.3 794.447 2092.71 791.687 2086.7 791.152 2056.31 791.152L2020.03 791.152 2020.03 923.55C2020.03 1011.02 2019.28 1055.94 2017.81 1055.94 2016.33 1055.94 2015.77 1010.85 2016.15 921.891ZM2103.96 977.609 2103.96 945.609 2139.13 945.609C2168.17 945.609 2174.92 946.218 2177.78 949.078 2181.71 952.998 2182.45 967.943 2179.04 974.306 2177.56 977.075 2177.56 978.893 2179.04 979.811 2180.25 980.561 2181.26 986.024 2181.26 991.953 2181.26 1008.5 2178.53 1009.6 2137.7 1009.6L2103.96 1009.6ZM2174.19 1000.34C2177.6 996.924 2177.6 986.983 2174.19 983.564 2172.37 981.754 2161.57 980.92 2139.95 980.92L2108.37 980.92 2108.37 991.953 2108.37 1002.99 2139.95 1002.99C2161.57 1002.99 2172.37 1002.14 2174.19 1000.34ZM2174.19 971.646C2177.61 968.227 2177.61 956.092 2174.19 952.673 2172.37 950.863 2161.57 950.029 2139.95 950.029L2108.37 950.029 2108.37 962.164 2108.37 974.298 2139.95 974.298C2161.57 974.298 2172.37 973.464 2174.19 971.646ZM2202.56 1004.19C2197.02 999.067 2196.71 997.666 2196.71 977.609 2196.71 958.077 2197.13 956.026 2202.13 951.03 2207.32 945.851 2208.78 945.609 2235.36 945.609 2261.94 945.609 2263.41 945.851 2268.59 951.03 2273.55 955.984 2274.01 958.144 2274.01 976.575 2274.01 995.881 2273.75 996.966 2267.56 1003.15 2261.15 1009.56 2260.93 1009.6 2234.75 1009.6 2209.84 1009.6 2208.08 1009.31 2202.56 1004.19ZM2265.46 999.334C2267.5 996.882 2268.49 989.61 2268.49 977.083 2268.49 951.547 2266.59 950.029 2234.71 950.029 2213.77 950.029 2210.82 950.521 2206.24 954.825 2201.76 959.019 2201.13 961.713 2201.13 976.4 2201.13 1002.35 2201.94 1002.99 2235.22 1002.99 2257.83 1002.99 2262.94 1002.37 2265.46 999.334ZM2283.81 1005.74C2294.29 977.559 2308.84 945.684 2311.24 945.651 2314.71 945.601 2315.32 943.674 2299.87 981.429 2293.16 997.825 2287.12 1009.53 2285.37 1009.56 2283.43 1009.58 2282.88 1008.23 2283.81 1005.74ZM2074.69 988.109C2066.49 983.63 2059.79 978.735 2059.79 977.234 2059.79 972.972 2088.35 957.818 2091.14 960.604 2092.75 962.222 2090.08 964.624 2082.3 968.568 2076.16 971.671 2070.57 975.132 2069.88 976.25 2069.19 977.375 2074.13 981.395 2080.85 985.19 2087.58 988.984 2092.49 993.046 2091.77 994.222 2090.11 996.907 2092.03 997.591 2074.69 988.109ZM2319.48 994.472C2317.92 991.962 2321.06 989.402 2333.16 983.305 2338.37 980.687 2342.03 977.567 2341.29 976.375 2340.56 975.191 2335.05 971.738 2329.07 968.702 2318.99 963.598 2314.9 958.853 2320.59 958.853 2325.03 958.853 2351.31 974.657 2351.31 977.334 2351.31 980.828 2321.1 997.091 2319.48 994.472ZM2384.88 872.485C2381.01 866.422 2380.74 864.946 2383.4 864.363 2386.09 863.77 2386.64 857.499 2386.64 827.399L2386.64 791.151 2261.42 791.151C2177.25 791.151 2136.93 790.423 2138.43 788.926 2139.89 787.469 2183.69 786.898 2265.3 787.272L2389.96 787.842 2390.56 825.753C2391.04 855.998 2391.79 863.804 2394.24 864.371 2396.77 864.946 2396.63 866.406 2393.46 872.485L2389.59 879.9Z" fill="#FFFFFF" fill-rule="evenodd"/><path d="M2313.2 1164.92C2309.85 1163.16 2307.13 1161.28 2307.13 1160.74 2307.13 1160.2 2310.11 1158.23 2313.75 1156.34 2319.66 1153.29 2320.38 1153.28 2320.38 1156.28 2320.38 1159.15 2325.28 1159.65 2353.5 1159.65L2386.63 1159.65 2386.63 1032.78C2386.63 949.666 2387.39 905.909 2388.84 905.909 2390.28 905.909 2391.04 950.033 2391.04 1033.89L2391.04 1161.85 2355.87 1161.85C2327.29 1161.85 2320.56 1162.44 2319.99 1164.99 2319.37 1167.69 2318.43 1167.67 2313.2 1164.92ZM2015.62 1128.76C2015.62 1100.57 2015.12 1095.66 2012.25 1095.66 2009.24 1095.66 2009.24 1094.95 2012.3 1089.04 2016.58 1080.79 2017.98 1080.79 2022.69 1089.06 2025.84 1094.59 2025.93 1095.66 2023.24 1095.66 2020.58 1095.66 2020.03 1101.14 2020.03 1127.64L2020.03 1159.62 2153.09 1160.21 2286.15 1160.79 2150.88 1161.33 2015.62 1161.86ZM2015.62 922.455 2015.62 788.967 2053.05 788.967C2085.24 788.967 2090.76 788.466 2092.48 785.397 2094.31 782.135 2094.99 782.163 2100.43 785.723L2106.38 789.617 2100.2 793.69C2094.95 797.146 2093.91 797.264 2093.3 794.468 2092.7 791.708 2086.69 791.173 2056.31 791.173L2020.03 791.173 2020.03 923.564C2020.03 1010.34 2019.27 1055.95 2017.82 1055.95 2016.38 1055.95 2015.62 1009.98 2015.62 922.455ZM2103.95 977.62 2103.95 945.622 2138.94 945.622C2170.04 945.622 2174.35 946.072 2177.59 949.658 2181.66 954.144 2182.46 967.921 2179.04 974.317 2177.55 977.086 2177.55 978.904 2179.04 979.821 2180.25 980.572 2181.25 986.034 2181.25 991.963 2181.25 1008.51 2178.52 1009.61 2137.69 1009.61L2103.95 1009.61ZM2175.49 999.502C2177.65 993.881 2177.03 986.434 2174.18 983.574 2172.37 981.764 2161.57 980.93 2139.95 980.93L2108.37 980.93 2108.37 991.963 2108.37 1003 2141.26 1003C2169.21 1003 2174.35 1002.47 2175.49 999.502ZM2174.18 971.657C2177.6 968.238 2177.6 956.104 2174.18 952.685 2172.37 950.875 2161.57 950.041 2139.95 950.041L2108.37 950.041 2108.37 962.175 2108.37 974.309 2139.95 974.309C2161.57 974.309 2172.37 973.475 2174.18 971.657ZM2206.65 1007.07C2198.05 1002.36 2196.71 998.318 2196.71 977.094 2196.71 958.122 2197.14 956.021 2202.12 951.042 2207.31 945.863 2208.78 945.622 2235.35 945.622 2261.93 945.622 2263.4 945.863 2268.58 951.042 2273.55 955.996 2274 958.156 2274 976.586 2274 995.891 2273.74 996.975 2267.55 1003.16 2261.16 1009.54 2260.82 1009.61 2236.08 1009.54 2222.26 1009.51 2209.08 1008.4 2206.65 1007.07ZM2265.45 999.344C2267.49 996.884 2268.48 989.612 2268.48 977.086 2268.48 951.559 2266.58 950.041 2234.7 950.041 2213.76 950.041 2210.81 950.534 2206.23 954.837 2201.76 959.031 2201.12 961.725 2201.12 976.411 2201.12 1002.36 2201.93 1003 2235.21 1003 2257.82 1003 2262.93 1002.38 2265.45 999.344ZM2283.2 1007.58C2292.48 981.973 2308.91 945.646 2311.22 945.638 2314.69 945.622 2315.31 943.687 2299.86 981.439 2293.29 997.484 2287.09 1009.54 2285.41 1009.57 2283.79 1009.59 2282.79 1008.7 2283.2 1007.58ZM2074.69 988.119C2066.49 983.641 2059.78 978.779 2059.78 977.328 2059.78 973.4 2088.47 957.956 2091.03 960.515 2092.36 961.85 2088.66 964.952 2080.88 969.013 2074.14 972.532 2068.63 976.06 2068.62 976.853 2068.62 977.653 2074.12 981.406 2080.85 985.2 2087.58 988.995 2092.49 993.056 2091.76 994.232 2090.11 996.917 2092.02 997.601 2074.69 988.119ZM2319.35 994.282C2318.6 993.081 2323.5 988.995 2330.23 985.2 2336.96 981.406 2341.89 977.386 2341.2 976.26 2340.5 975.143 2334.92 971.682 2328.79 968.58 2321.17 964.719 2318.35 962.217 2319.9 960.666 2322.58 957.989 2351.3 973.175 2351.28 977.253 2351.26 980.864 2321.01 996.984 2319.35 994.282ZM2384.86 872.502C2380.99 866.439 2380.73 864.963 2383.38 864.379 2386.08 863.787 2386.63 857.516 2386.63 827.436L2386.63 791.209 2261.3 790.621 2135.97 790.032 2263.51 789.5 2391.04 788.967 2391.04 826.315C2391.04 856.732 2391.63 863.796 2394.17 864.379 2396.78 864.972 2396.65 866.348 2393.44 872.502L2389.57 879.916Z" fill="#FFFFFF" fill-rule="evenodd"/><path d="M2312.68 1164.92C2309.34 1163.16 2306.62 1161.28 2306.62 1160.74 2306.62 1160.2 2309.59 1158.23 2313.23 1156.34 2319.13 1153.29 2319.85 1153.28 2319.85 1156.28 2319.85 1159.15 2324.74 1159.65 2352.91 1159.65L2385.98 1159.65 2385.98 1032.78C2385.98 949.666 2386.74 905.909 2388.19 905.909 2389.63 905.909 2390.39 950.033 2390.39 1033.89L2390.39 1161.85 2355.28 1161.85C2326.75 1161.85 2320.03 1162.44 2319.46 1164.99 2318.84 1167.69 2317.9 1167.67 2312.68 1164.92ZM2015.61 1128.76C2015.61 1100.57 2015.11 1095.66 2012.24 1095.66 2009.24 1095.66 2009.25 1094.95 2012.3 1089.04 2016.57 1080.79 2017.97 1080.79 2022.67 1089.06 2026.3 1095.44 2026.27 1095.66 2022.06 1095.66 2017.88 1095.66 2017.72 1097.03 2018.3 1127.11L2018.91 1158.55 2152.29 1159.68 2285.68 1160.81 2150.64 1161.34 2015.61 1161.86ZM2016.14 923.005 2015.61 788.967 2052.98 788.967C2085.11 788.967 2090.62 788.466 2092.34 785.397 2094.16 782.135 2094.85 782.163 2100.27 785.723L2106.21 789.617 2100.04 793.69C2094.81 797.146 2093.76 797.264 2093.16 794.468 2092.56 791.704 2086.44 791.173 2055.14 791.173L2017.84 791.173 2017.26 924.115 2016.67 1057.05ZM2103.79 977.62 2103.79 945.622 2138.72 945.622C2169.76 945.622 2174.06 946.072 2177.3 949.658 2181.36 954.144 2182.16 967.921 2178.75 974.317 2177.26 977.086 2177.26 978.904 2178.75 979.821 2179.95 980.572 2180.95 986.034 2180.95 991.963 2180.95 1008.51 2178.23 1009.61 2137.47 1009.61L2103.79 1009.61ZM2175.21 999.502C2177.36 993.881 2176.75 986.434 2173.9 983.574 2172.09 981.764 2161.31 980.93 2139.73 980.93L2108.2 980.93 2108.2 991.963 2108.2 1003 2141.03 1003C2168.94 1003 2174.07 1002.47 2175.21 999.502ZM2173.9 971.657C2177.31 968.238 2177.31 956.104 2173.9 952.685 2172.09 950.875 2161.31 950.041 2139.73 950.041L2108.2 950.041 2108.2 962.175 2108.2 974.309 2139.73 974.309C2161.31 974.309 2172.09 973.475 2173.9 971.657ZM2206.31 1007.07C2197.73 1002.36 2196.39 998.318 2196.39 977.094 2196.39 958.122 2196.82 956.021 2201.79 951.042 2206.97 945.863 2208.44 945.622 2234.97 945.622 2262.16 945.622 2262.85 945.747 2268.15 951.459 2273.04 956.754 2273.55 959.148 2273.55 977.011 2273.55 995.841 2273.26 997 2267.1 1003.16 2260.73 1009.54 2260.39 1009.61 2235.69 1009.54 2221.9 1009.51 2208.74 1008.4 2206.31 1007.07ZM2264.18 1000.08C2267.25 997 2268.04 992.38 2268.04 977.344 2268.04 951.526 2266.2 950.041 2234.32 950.041 2213.41 950.041 2210.47 950.534 2205.89 954.837 2201.43 959.031 2200.79 961.725 2200.79 976.411 2200.79 994.707 2203.85 1001.91 2212.38 1003.76 2215.11 1004.36 2227 1004.63 2238.82 1004.39 2255.95 1004.03 2261.1 1003.15 2264.18 1000.08ZM2282.37 1008.78C2282.37 1006.45 2307.14 948.632 2308.9 946.873 2314.59 941.168 2312.24 950.141 2300.65 978.404 2293.63 995.524 2286.64 1009.55 2285.12 1009.58 2283.6 1009.6 2282.37 1009.24 2282.37 1008.78ZM2074.58 988.119C2066.4 983.641 2059.7 978.779 2059.7 977.328 2059.7 973.4 2088.34 957.956 2090.89 960.515 2092.22 961.85 2088.52 964.952 2080.76 969.013 2074.03 972.532 2068.53 976.06 2068.52 976.853 2068.52 977.653 2074.01 981.406 2080.73 985.2 2087.45 988.995 2092.35 993.056 2091.62 994.232 2089.97 996.917 2091.88 997.601 2074.58 988.119ZM2318.82 994.282C2318.07 993.081 2322.96 988.995 2329.68 985.2 2336.4 981.406 2341.32 977.386 2340.63 976.26 2339.94 975.143 2334.36 971.682 2328.24 968.58 2320.64 964.719 2317.82 962.217 2319.37 960.666 2322.04 957.989 2350.72 973.175 2350.7 977.253 2350.68 980.864 2320.48 996.984 2318.82 994.282ZM2383.6 871.351C2381.16 866.756 2381.08 865.263 2383.23 864.546 2385.28 863.854 2385.98 854.414 2385.98 827.414L2385.98 791.209 2260.87 790.621 2135.76 790.032 2263.08 789.5 2390.39 788.967 2390.39 826.476C2390.39 858.625 2390.87 863.988 2393.76 863.988 2396.76 863.988 2396.76 864.696 2393.7 870.609 2389.49 878.748 2387.61 878.89 2383.6 871.351Z" fill="#FFFFFF" fill-rule="evenodd"/><path d="M2312.68 1164.92C2309.34 1163.16 2306.62 1161.27 2306.62 1160.74 2306.62 1160.2 2309.59 1158.22 2313.23 1156.34 2319.21 1153.24 2319.85 1153.24 2319.85 1156.34 2319.85 1159.31 2324.29 1159.68 2353.46 1159.16L2387.08 1158.55 2388.22 1031.67 2389.34 904.81 2389.87 1033.33 2390.39 1161.86 2355.28 1161.86C2326.75 1161.86 2320.03 1162.44 2319.46 1164.99 2318.84 1167.69 2317.9 1167.68 2312.68 1164.92ZM2015.61 1128.76C2015.61 1100.56 2015.11 1095.66 2012.24 1095.66 2009.24 1095.66 2009.25 1094.95 2012.3 1089.04 2016.57 1080.78 2017.97 1080.78 2022.67 1089.06 2026.3 1095.44 2026.27 1095.66 2022.06 1095.66 2017.88 1095.66 2017.72 1097.03 2018.3 1127.11L2018.91 1158.55 2152.29 1159.67 2285.68 1160.81 2150.64 1161.33 2015.61 1161.86ZM2016.14 923.006 2015.61 788.97 2052.98 788.97C2085.11 788.97 2090.62 788.47 2092.34 785.401 2094.16 782.137 2094.84 782.164 2100.25 785.71L2106.17 789.589 2100.02 793.347C2095.13 796.334 2093.72 796.496 2093.16 794.14 2092.6 791.804 2084.54 791.177 2055.14 791.177L2017.84 791.177 2017.26 924.115 2016.67 1057.05ZM2103.79 977.62 2103.79 945.622 2138.72 945.622C2169.76 945.622 2174.06 946.072 2177.3 949.659 2181.36 954.145 2182.16 967.921 2178.75 974.317 2177.26 977.086 2177.26 978.904 2178.75 979.821 2179.95 980.572 2180.95 986.034 2180.95 991.963 2180.95 1008.51 2178.23 1009.61 2137.47 1009.61L2103.79 1009.61ZM2174.39 1000.79C2178.29 994.599 2176.82 985.626 2171.31 982.014 2167.13 979.271 2160.42 978.712 2137.7 979.204L2109.3 979.821 2108.61 989.453C2107.43 1006 2106.62 1005.62 2141.35 1004.81 2165.91 1004.25 2172.74 1003.41 2174.39 1000.79ZM2173.9 971.657C2177.31 968.238 2177.31 956.105 2173.9 952.686 2172.09 950.876 2161.31 950.042 2139.73 950.042L2108.2 950.042 2108.2 962.176 2108.2 974.309 2139.73 974.309C2161.31 974.309 2172.09 973.475 2173.9 971.657ZM2206.31 1007.07C2197.73 1002.36 2196.39 998.318 2196.39 977.094 2196.39 958.123 2196.82 956.021 2201.79 951.043 2206.97 945.864 2208.44 945.622 2234.97 945.622 2262.16 945.622 2262.85 945.747 2268.15 951.46 2273.04 956.755 2273.55 959.148 2273.55 977.011 2273.55 995.841 2273.26 997 2267.1 1003.16 2260.73 1009.54 2260.39 1009.61 2235.69 1009.54 2221.9 1009.51 2208.74 1008.4 2206.31 1007.07ZM2264.14 1000.11C2267 997.242 2268.21 991.713 2268.8 978.787 2269.55 962.476 2269.22 960.95 2263.95 955.679 2258.59 950.309 2257.15 950.042 2233.97 950.042 2202.58 950.042 2200.79 951.41 2200.79 975.56 2200.79 1002.95 2203.98 1005.46 2237.7 1004.57 2255.75 1004.11 2261.05 1003.21 2264.14 1000.11ZM2282.37 1008.78C2282.37 1006.45 2307.14 948.633 2308.9 946.873 2314.35 941.411 2312.16 949.659 2300.54 978.304 2293.58 995.474 2286.64 1009.55 2285.12 1009.57 2283.61 1009.59 2282.37 1009.24 2282.37 1008.78ZM2074.6 988.035C2066.43 983.516 2059.73 978.671 2059.72 977.253 2059.69 973.383 2088.36 957.981 2090.89 960.516 2092.22 961.85 2088.52 964.952 2080.76 969.014 2074.03 972.533 2068.53 976.085 2068.52 976.903 2068.52 977.728 2073.98 981.531 2080.67 985.35 2087.35 989.178 2092.25 993.222 2091.56 994.34 2089.99 996.883 2091.9 997.592 2074.6 988.035ZM2318.82 994.281C2318.07 993.081 2322.96 988.994 2329.68 985.2 2336.4 981.406 2341.32 977.386 2340.63 976.26 2339.94 975.143 2334.36 971.682 2328.24 968.58 2320.97 964.886 2317.86 962.184 2319.27 960.766 2321.85 958.181 2350.72 973.342 2350.7 977.27 2350.68 980.872 2320.48 996.975 2318.82 994.281ZM2384.31 872.846C2380.67 867 2380.86 863.99 2384.88 863.99 2387.69 863.99 2388.19 858.477 2388.19 827.6L2388.19 791.213 2261.97 790.625 2135.76 790.036 2263.08 789.503 2390.39 788.97 2390.39 826.479C2390.39 858.628 2390.87 863.99 2393.76 863.99 2396.76 863.99 2396.76 864.698 2393.7 870.611 2389.68 878.383 2388.01 878.775 2384.31 872.846Z" fill="#FFFFFF" fill-rule="evenodd"/><path d="M2312.68 1164.92C2309.34 1163.16 2306.62 1161.27 2306.62 1160.74 2306.62 1160.2 2309.59 1158.22 2313.23 1156.34 2319.21 1153.24 2319.85 1153.24 2319.85 1156.34 2319.85 1159.31 2324.29 1159.68 2353.46 1159.16L2387.09 1158.55 2388.22 1031.67 2389.34 904.81 2389.87 1033.33 2390.39 1161.86 2355.28 1161.86C2326.75 1161.86 2320.03 1162.44 2319.46 1164.99 2318.84 1167.69 2317.9 1167.68 2312.68 1164.92ZM2015.6 1128.76C2015.6 1100.27 2015.13 1095.66 2012.17 1095.66 2009.17 1095.66 2009.23 1094.83 2012.65 1089.04 2017.41 1080.98 2018.59 1080.84 2021.86 1088.04 2025.14 1095.24 2025.1 1095.66 2021.06 1095.66 2018.16 1095.66 2017.77 1100.11 2018.3 1127.1L2018.91 1158.55 2152.29 1159.67 2285.68 1160.8 2150.64 1161.33 2015.6 1161.86ZM2016.14 923.006 2015.6 788.97 2052.97 788.97C2085.11 788.97 2090.62 788.47 2092.34 785.401 2094.16 782.137 2094.84 782.164 2100.25 785.71L2106.16 789.589 2100.02 793.347C2095.13 796.334 2093.72 796.496 2093.16 794.14 2092.59 791.804 2084.54 791.177 2055.14 791.177L2017.84 791.177 2017.26 924.115 2016.67 1057.05ZM2103.79 977.62 2103.79 945.622 2138.72 945.622C2169.76 945.622 2174.06 946.072 2177.31 949.659 2181.36 954.145 2182.16 967.921 2178.75 974.317 2177.26 977.086 2177.26 978.904 2178.75 979.821 2179.96 980.572 2180.96 986.034 2180.96 991.963 2180.96 1008.51 2178.23 1009.61 2137.47 1009.61L2103.79 1009.61ZM2173.08 1001.73C2176.93 997.884 2177.61 988.236 2174.39 983.132 2172.7 980.447 2166.41 979.821 2140.8 979.821L2109.3 979.821 2108.61 989.453C2107.46 1005.52 2106.82 1005.2 2139.94 1005.2 2163.98 1005.2 2170.27 1004.54 2173.08 1001.73ZM2173.9 971.657C2177.31 968.238 2177.31 956.105 2173.9 952.686 2172.09 950.876 2161.31 950.042 2139.73 950.042L2108.2 950.042 2108.2 962.176 2108.2 974.309 2139.73 974.309C2161.31 974.309 2172.09 973.475 2173.9 971.657ZM2206.31 1006.95C2197.89 1002.11 2196.53 997.967 2196.45 976.969 2196.39 958.081 2196.81 956.03 2201.79 951.043 2206.97 945.872 2208.43 945.631 2234.32 945.697 2270.56 945.789 2273.55 948.307 2273.55 978.746 2273.55 995.666 2273.17 997.092 2267.11 1003.16 2260.73 1009.54 2260.39 1009.61 2235.69 1009.54 2221.07 1009.5 2208.89 1008.42 2206.31 1006.95ZM2264.09 1000.17C2267 997.259 2268.21 991.838 2268.78 979.204 2269.45 964.385 2268.93 961.383 2264.77 956.105 2260.06 950.117 2259.66 950.042 2234.81 950.042 2202.06 950.042 2200.79 951.051 2200.79 977.278 2200.79 1003.46 2203.27 1005.3 2237.65 1004.57 2255.88 1004.19 2260.92 1003.35 2264.09 1000.17ZM2282.37 1009.01C2282.37 1006.72 2307.21 948.741 2308.99 946.873 2310.07 945.739 2311.48 945.347 2312.13 945.998 2313.98 947.849 2288.2 1008.04 2285.12 1009.07 2283.61 1009.57 2282.37 1009.54 2282.37 1009.02ZM2074.6 988.035C2066.42 983.516 2059.73 978.679 2059.72 977.27 2059.69 973.75 2088.54 958.164 2090.83 960.458 2091.85 961.475 2086.65 965.628 2079.28 969.681L2065.88 977.053 2079.36 984.658C2086.78 988.836 2092.27 993.181 2091.57 994.315 2089.98 996.883 2091.91 997.6 2074.6 988.035ZM2318.78 994.215C2318.06 993.047 2322.97 988.994 2329.68 985.2 2336.4 981.406 2341.89 977.653 2341.89 976.853 2341.89 976.06 2336.38 972.533 2329.65 969.014 2322.31 965.178 2318.22 961.817 2319.43 960.608 2321.87 958.173 2350.73 973.559 2350.67 977.27 2350.62 980.797 2320.4 996.85 2318.78 994.215ZM2384.31 872.846C2380.67 867 2380.86 863.99 2384.89 863.99 2387.69 863.99 2388.19 858.477 2388.19 827.601L2388.19 791.213 2263.08 790.625 2137.96 790.036 2264.18 789.503 2390.39 788.97 2390.39 826.479C2390.39 858.628 2390.88 863.99 2393.76 863.99 2396.76 863.99 2396.75 864.698 2393.7 870.611 2389.69 878.383 2388.01 878.775 2384.31 872.846Z" fill="#FFFFFF" fill-rule="evenodd"/><path d="M2312.88 1164.92C2309.53 1163.16 2306.81 1161.27 2306.81 1160.73 2306.81 1160.19 2309.78 1158.21 2313.43 1156.32 2319.33 1153.27 2320.05 1153.26 2320.05 1156.26 2320.05 1159.15 2325.06 1159.64 2354.22 1159.64L2388.39 1159.64 2388.99 1032.01 2389.57 904.384 2390.1 1033.11 2390.64 1161.84 2355.5 1161.84C2326.95 1161.84 2320.23 1162.44 2319.66 1164.98 2319.04 1167.69 2318.1 1167.67 2312.88 1164.92ZM2015.61 1128.7C2015.61 1100.17 2015.13 1095.55 2012.17 1095.55 2009.17 1095.55 2009.23 1094.71 2012.65 1088.92 2017.41 1080.84 2018.59 1080.71 2021.87 1087.92 2025.14 1095.12 2025.1 1095.55 2021.12 1095.55 2018.33 1095.55 2017.81 1100.58 2017.81 1127.57L2017.81 1159.61 2151.83 1160.19 2285.85 1160.78 2150.73 1161.32 2015.61 1161.85ZM2016.14 922.617 2015.61 788.366 2053.18 788.366C2084.26 788.366 2090.97 787.802 2092 785.105 2093.09 782.254 2094.09 782.278 2099.92 785.303L2106.6 788.76 2100.26 792.636C2095.25 795.7 2093.77 795.891 2093.21 793.544 2092.65 791.204 2084.59 790.576 2055.17 790.576L2017.85 790.576 2017.26 923.728 2016.68 1056.88ZM2103.85 977.319 2103.85 945.27 2138.8 945.27C2169.87 945.27 2174.17 945.721 2177.41 949.312 2181.56 953.898 2182.36 969.601 2178.65 973.326 2176.91 975.072 2176.91 976.984 2178.65 980.25 2182.57 987.584 2181.56 1000.02 2176.65 1004.94 2172.62 1008.98 2169.3 1009.36 2138.04 1009.36L2103.85 1009.36ZM2172.38 1002.65C2177.73 999.787 2178.19 986.907 2173.13 981.837 2170.17 978.872 2164.7 978.396 2139.48 978.914L2109.37 979.524 2108.67 989.171C2107.52 1005.23 2106.97 1004.94 2139.22 1004.94 2155.11 1004.94 2170.03 1003.91 2172.38 1002.65ZM2174 971.347C2177.42 967.922 2177.42 955.769 2174 952.344 2172.19 950.532 2161.4 949.697 2139.81 949.697L2108.26 949.697 2108.26 961.849 2108.26 974.002 2139.81 974.002C2161.4 974.002 2172.19 973.167 2174 971.347ZM2203.5 1003.81C2196.56 997.958 2196.51 997.782 2196.51 977.018 2196.51 957.782 2196.93 955.694 2201.92 950.699 2207.09 945.52 2208.55 945.278 2234.46 945.345 2270.65 945.437 2273.71 947.992 2273.71 978.154 2273.71 993.673 2273.06 996.622 2268.39 1002.06 2263.2 1008.11 2262.47 1008.27 2236.79 1008.98 2211.03 1009.7 2210.35 1009.59 2203.5 1003.81ZM2265.09 998.618C2271.34 990.883 2271.11 963.645 2264.73 955.518 2260.27 949.83 2259.56 949.697 2234.95 949.697 2202.14 949.697 2200.92 950.682 2200.92 977.16 2200.92 994.826 2201.22 996.028 2206.96 1000.54 2212.46 1004.87 2215.15 1005.24 2236.94 1004.57 2258.99 1003.9 2261.22 1003.42 2265.09 998.618ZM2282.54 1008.76C2282.54 1006.47 2307.4 948.394 2309.18 946.522 2310.26 945.387 2311.67 944.986 2312.3 945.621 2314.09 947.416 2288.16 1007.86 2285.17 1008.85 2283.73 1009.33 2282.54 1009.29 2282.54 1008.76ZM2074.66 987.592C2066.49 983.157 2059.79 978.379 2059.77 976.968 2059.71 973.451 2088.58 957.823 2090.88 960.129 2091.9 961.148 2086.67 965.324 2079.25 969.4L2065.78 976.826 2078.36 983.967C2089.74 990.432 2092.42 992.904 2090.25 994.959 2089.84 995.335 2082.83 992.019 2074.66 987.592ZM2319.02 994.015C2318.33 992.896 2323.83 988.553 2331.25 984.368L2344.74 976.75 2331.34 969.367C2323.96 965.308 2318.72 961.181 2319.7 960.204 2321.86 958.041 2350.95 973.869 2350.89 977.177 2350.84 980.492 2320.55 996.496 2319.02 994.015ZM2384.37 871.132C2381.1 863.94 2381.15 863.506 2385.12 863.506 2387.93 863.506 2388.44 857.985 2388.44 827.058L2388.44 790.612 2263.24 790.023 2138.04 789.433 2264.34 788.9 2390.64 788.366 2390.64 825.75C2390.64 853.508 2391.35 863.372 2393.37 864.049 2395.53 864.767 2395.54 866.204 2393.42 870.865 2390.06 878.248 2387.64 878.323 2384.37 871.132Z" fill="#FFFFFF" fill-rule="evenodd"/><path d="M2313.04 1164.92C2309.7 1163.16 2306.97 1161.27 2306.97 1160.74 2306.97 1160.19 2309.95 1158.22 2313.59 1156.33 2319.48 1153.27 2320.2 1153.26 2320.2 1156.27 2320.2 1159.15 2325.2 1159.64 2354.33 1159.64L2388.47 1159.64 2389.06 1032.08 2389.64 904.51 2390.17 1033.18 2390.71 1161.85 2355.61 1161.85C2327.1 1161.85 2320.38 1162.44 2319.81 1164.99 2319.19 1167.69 2318.25 1167.67 2313.04 1164.92ZM2016.12 1128.72C2016.12 1101.21 2015.57 1095.58 2012.91 1095.58 2010.23 1095.58 2010.32 1094.5 2013.46 1088.97 2018.05 1080.9 2019.11 1080.78 2022.37 1087.95 2025.64 1095.15 2025.6 1095.58 2021.62 1095.58 2018.84 1095.58 2018.32 1100.61 2018.32 1127.59L2018.32 1159.61 2152.18 1160.19 2286.05 1160.78 2151.08 1161.32 2016.12 1161.86ZM2016.65 922.735 2016.12 788.548 2054.68 788.548C2087.77 788.548 2093.24 788.071 2093.24 785.178 2093.24 782.214 2094.08 782.247 2100.26 785.45L2107.29 789.093 2100.92 792.44C2096.43 794.799 2094.3 795.044 2093.71 793.272 2093.12 791.524 2081.52 790.756 2055.61 790.756L2018.35 790.756 2017.77 923.846 2017.18 1056.93ZM2104.25 977.41 2104.25 945.377 2139.17 945.377C2170.19 945.377 2174.49 945.828 2177.73 949.417 2181.87 954 2182.68 969.696 2178.97 973.419 2177.23 975.164 2177.23 977.076 2178.97 980.34 2182.89 987.67 2181.88 1000.1 2176.97 1005.02 2172.94 1009.06 2169.63 1009.44 2138.41 1009.44L2104.25 1009.44ZM2172.71 1002.73C2175.81 1001.07 2176.97 998.09 2176.97 991.77 2176.97 985.442 2175.81 982.461 2172.71 980.8 2170.36 979.539 2154.99 978.512 2138.55 978.512L2108.66 978.512 2108.66 991.77 2108.66 1005.02 2138.55 1005.02C2154.99 1005.02 2170.36 1003.99 2172.71 1002.73ZM2174.32 971.441C2177.74 968.018 2177.74 955.871 2174.32 952.448 2172.52 950.636 2161.74 949.801 2140.17 949.801L2108.66 949.801 2108.66 961.949 2108.66 974.096 2140.17 974.096C2161.74 974.096 2172.52 973.261 2174.32 971.441ZM2203.79 1003.89C2196.85 998.039 2196.8 997.864 2196.8 977.109 2196.8 957.883 2197.23 955.796 2202.21 950.803 2207.37 945.627 2208.86 945.377 2235.07 945.377L2262.51 945.377 2268.22 952.172C2273.36 958.3 2273.92 960.797 2273.92 977.452 2273.92 993.798 2273.31 996.654 2268.61 1002.14 2263.42 1008.19 2262.69 1008.35 2237.03 1009.06 2211.31 1009.78 2210.63 1009.67 2203.79 1003.89ZM2264.11 999.601C2268.87 994.817 2269.51 992.246 2269.51 977.811 2269.51 964.595 2268.64 960.32 2264.95 955.62 2260.5 949.935 2259.78 949.801 2235.2 949.801 2202.43 949.801 2201.21 950.786 2201.21 977.252 2201.21 994.725 2201.57 996.144 2207.01 1000.44 2212.04 1004.41 2215.89 1005.02 2235.76 1005.02 2257.18 1005.02 2259.05 1004.66 2264.11 999.601ZM2283.3 1006.98C2307.78 947.497 2309.86 943.114 2312.39 945.652 2314.23 947.497 2288.06 1008.02 2284.96 1009.06 2283.15 1009.67 2282.52 1008.88 2283.3 1006.98ZM2075.1 987.679C2066.94 983.246 2060.25 978.562 2060.22 977.268 2060.17 974.087 2088.76 958.334 2091.5 960.028 2092.7 960.771 2087.52 964.854 2079.99 969.103L2066.3 976.834 2077.02 983.154C2082.91 986.635 2088.62 989.791 2089.71 990.183 2090.8 990.568 2091.3 991.978 2090.81 993.314 2090.28 994.775 2084.07 992.554 2075.1 987.679ZM2319.19 994.141C2318.49 992.997 2323.98 988.639 2331.39 984.456L2344.87 976.842 2331.48 969.462C2324.11 965.405 2318.88 961.281 2319.85 960.304 2321.76 958.392 2351.05 973.753 2351.05 976.667 2351.05 980.207 2320.82 996.787 2319.19 994.141ZM2384.45 871.275C2381.18 864.086 2381.23 863.652 2385.2 863.652 2388.01 863.652 2388.51 858.134 2388.51 827.222L2388.51 790.793 2263.46 790.205 2138.41 789.615 2264.56 789.082 2390.71 788.548 2390.71 825.915C2390.71 853.843 2391.41 863.519 2393.46 864.212 2395.61 864.93 2395.53 866.424 2393.09 871.024 2389.2 878.346 2387.68 878.388 2384.45 871.275Z" fill="#FFFFFF" fill-rule="evenodd"/><path d="M2312.75 1164.33 2306.76 1160.37 2313.3 1156.49C2319.03 1153.1 2319.85 1153.04 2319.85 1156.05 2319.85 1159.02 2324.55 1159.49 2353.94 1159.49L2388.04 1159.49 2388.63 1031.92 2389.21 904.356 2389.74 1033.03 2390.28 1161.7 2355.22 1161.7C2325.91 1161.7 2320.05 1162.24 2319.46 1165 2318.85 1167.82 2317.87 1167.72 2312.75 1164.33ZM2016.11 1128.57C2016.11 1101.06 2015.57 1095.43 2012.91 1095.43 2010.23 1095.43 2010.32 1094.34 2013.46 1088.76L2017.21 1082.1 2021.06 1086.8C2025.78 1092.57 2025.97 1095.43 2021.61 1095.43 2018.83 1095.43 2018.31 1100.46 2018.31 1127.44L2018.31 1159.46 2152.02 1160.04 2285.73 1160.63 2150.92 1161.17 2016.11 1161.7ZM2016.62 922.574C2016.34 848.769 2016.85 788.38 2017.76 788.38 2019.26 788.379 2019.24 886.556 2017.71 1009.28 2017.39 1035.4 2016.89 996.387 2016.62 922.574ZM2104.15 977.251 2104.15 945.216 2139.02 945.216C2170.01 945.216 2174.31 945.667 2177.54 949.257 2181.68 953.84 2182.48 969.536 2178.78 973.26 2177.04 975.005 2177.04 976.917 2178.78 980.181 2182.69 987.512 2181.68 999.944 2176.78 1004.86 2172.76 1008.9 2169.45 1009.28 2138.27 1009.28L2104.15 1009.28ZM2172.53 1002.57C2175.63 1000.91 2176.78 997.931 2176.78 991.611 2176.78 985.283 2175.63 982.302 2172.53 980.641 2170.18 979.38 2154.83 978.353 2138.41 978.353L2108.55 978.353 2108.55 991.611 2108.55 1004.86 2138.41 1004.86C2154.83 1004.86 2170.18 1003.83 2172.53 1002.57ZM2174.14 971.281C2177.55 967.858 2177.55 955.711 2174.14 952.288 2172.33 950.476 2161.57 949.641 2140.03 949.641L2108.55 949.641 2108.55 961.789 2108.55 973.936 2140.03 973.936C2161.57 973.936 2172.33 973.101 2174.14 971.281ZM2203.2 1003.01C2196.82 996.595 2196.59 995.669 2196.59 976.216 2196.59 957.764 2197.05 955.602 2201.99 950.643 2207.15 945.466 2208.64 945.216 2234.82 945.216L2262.23 945.216 2268.13 952.262C2273.71 958.917 2273.99 960.344 2273.28 978.704 2272.19 1006.66 2270.62 1007.95 2236.17 1008.91L2209.83 1009.65ZM2263.82 999.443C2268.58 994.659 2269.22 992.087 2269.22 977.652 2269.22 964.435 2268.35 960.161 2264.66 955.46 2260.21 949.774 2259.5 949.641 2234.95 949.641 2202.21 949.641 2200.99 950.626 2200.99 977.092 2200.99 994.567 2201.35 995.986 2206.79 1000.29 2211.81 1004.25 2215.66 1004.86 2235.51 1004.86 2256.9 1004.86 2258.77 1004.5 2263.82 999.443ZM2286.55 998.983C2304.34 953.849 2309.53 942.97 2312.05 945.492 2313.78 947.228 2287.85 1007.83 2284.96 1008.8 2283.26 1009.37 2283.83 1005.88 2286.55 998.983ZM2075.03 987.52C2066.88 983.087 2060.19 978.403 2060.17 977.109 2060.12 973.928 2088.67 958.174 2091.41 959.868 2092.61 960.611 2087.43 964.694 2079.91 968.944L2066.24 976.675 2076.94 982.995C2082.83 986.477 2088.53 989.632 2089.62 990.025 2090.71 990.409 2091.21 991.82 2090.72 993.156 2090.19 994.617 2083.99 992.396 2075.03 987.52ZM2318.84 993.982C2318.18 992.897 2323.72 988.589 2331.15 984.398L2344.66 976.783 2331.2 969.353C2323.79 965.262 2318.56 961.087 2319.57 960.077 2320.58 959.067 2327.74 961.914 2335.48 966.414 2352.99 976.591 2352.09 975.698 2348.32 979.163 2342.22 984.782 2320.04 995.928 2318.84 993.982ZM2384.16 871.403C2382.22 867.128 2382.39 865.817 2385.01 864.807 2387.76 863.747 2388.17 857.594 2387.63 825.961 2387.27 805.289 2387.72 788.376 2388.63 788.378 2389.53 788.379 2390.28 805.693 2390.28 826.854 2390.28 853.611 2391.04 865.583 2392.78 866.168 2394.56 866.761 2394.4 868.406 2392.25 871.87 2388.4 878.057 2387.15 877.99 2384.16 871.403ZM2092.59 792.246C2092.08 790.728 2092.1 787.776 2092.64 785.687 2093.55 782.165 2094.11 782.144 2100.38 785.397L2107.14 788.904 2101.79 791.878C2095.06 795.623 2093.74 795.675 2092.59 792.246Z" fill="#FFFFFF" fill-rule="evenodd"/><path d="M2313.06 1164.33 2307.06 1160.37 2313.61 1156.49C2319.28 1153.14 2320.16 1153.07 2320.16 1155.99 2320.16 1158.87 2325.46 1159.48 2354.86 1160.05L2389.56 1160.72 2355.02 1161.21C2326.45 1161.61 2320.36 1162.27 2319.77 1165 2319.16 1167.82 2318.17 1167.72 2313.06 1164.33ZM2016.12 1128.57C2016.12 1101.06 2015.57 1095.43 2012.91 1095.43 2010.23 1095.43 2010.32 1094.34 2013.46 1088.76L2017.22 1082.1 2021.07 1086.8C2025.8 1092.57 2025.98 1095.43 2021.62 1095.43 2018.84 1095.43 2018.32 1100.46 2018.32 1127.44L2018.32 1159.46 2152.16 1160.04 2286.01 1160.63 2151.06 1161.17 2016.12 1161.7ZM2016.62 922.574C2016.34 848.769 2016.86 788.38 2017.77 788.38 2019.27 788.379 2019.24 886.556 2017.72 1009.28 2017.39 1035.4 2016.9 996.387 2016.62 922.574ZM2104.24 977.251 2104.24 945.216 2139.15 945.216C2170.17 945.216 2174.47 945.667 2177.71 949.257 2181.85 953.84 2182.66 969.536 2178.95 973.26 2177.21 975.005 2177.21 976.917 2178.95 980.181 2182.87 987.512 2181.86 999.944 2176.95 1004.86 2172.92 1008.9 2169.61 1009.28 2138.39 1009.28L2104.24 1009.28ZM2172.69 1002.57C2175.8 1000.91 2176.95 997.931 2176.95 991.611 2176.95 985.283 2175.8 982.302 2172.69 980.641 2170.34 979.38 2154.98 978.353 2138.54 978.353L2108.65 978.353 2108.65 991.611 2108.65 1004.86 2138.54 1004.86C2154.98 1004.86 2170.34 1003.83 2172.69 1002.57ZM2174.3 971.281C2177.72 967.858 2177.72 955.711 2174.3 952.288 2172.5 950.476 2161.72 949.641 2140.16 949.641L2108.65 949.641 2108.65 961.789 2108.65 973.936 2140.16 973.936C2161.72 973.936 2172.5 973.101 2174.3 971.281ZM2208.58 1007.18C2199.35 1003.27 2196.78 996.362 2196.78 975.556 2196.78 957.806 2197.26 955.577 2202.18 950.643 2207.33 945.483 2208.89 945.216 2234.3 945.216L2261.02 945.216 2267.67 951.895C2274.23 958.474 2274.31 958.85 2273.56 978.345 2272.47 1006.53 2270.73 1008.01 2238.03 1008.68 2224.43 1008.96 2211.18 1008.28 2208.58 1007.18ZM2264.08 999.443C2268.88 994.617 2269.48 992.129 2269.48 976.942 2269.48 962.448 2268.76 959.092 2264.7 954.75 2260.23 949.992 2258.18 949.641 2234.95 949.641 2202.44 949.641 2201.19 950.66 2201.19 977.092 2201.19 994.567 2201.54 995.986 2206.99 1000.29 2212.02 1004.25 2215.87 1004.86 2235.73 1004.86 2257.15 1004.86 2259.03 1004.5 2264.08 999.443ZM2284.63 1004.5C2291.04 987.612 2307.88 948.213 2309.44 946.468 2310.44 945.333 2311.76 944.899 2312.35 945.492 2314.07 947.211 2288.14 1007.83 2285.26 1008.79 2283.42 1009.41 2283.23 1008.18 2284.63 1004.5ZM2075.78 987.612C2068.01 983.12 2061.28 978.362 2060.84 977.034 2060.4 975.707 2066.27 971.24 2073.87 967.099 2091.5 957.514 2091.02 957.706 2091.02 960.336 2091.02 961.563 2085.49 965.746 2078.72 969.628L2066.41 976.691 2072.64 980.791C2076.07 983.045 2081.61 986.026 2084.95 987.412 2088.29 988.798 2091.02 991.302 2091.02 992.981 2091.02 996.754 2092.49 997.272 2075.78 987.612ZM2319.19 994.032C2318.51 992.922 2324.04 988.581 2331.49 984.389L2345.04 976.758 2331.48 969.102C2324.03 964.895 2318.58 960.787 2319.38 959.985 2321.05 958.307 2351.01 974.003 2351.01 976.558 2351.01 980.014 2320.78 996.612 2319.19 994.032ZM2384.54 871.403C2382.62 867.17 2382.77 865.817 2385.29 864.849 2388.74 863.513 2395.11 865.308 2395 867.587 2394.91 869.474 2389.36 876.738 2388.02 876.738 2387.44 876.738 2385.87 874.342 2384.54 871.403ZM2092.67 792.246C2092.16 790.728 2092.18 787.776 2092.72 785.687 2093.64 782.165 2094.2 782.144 2100.47 785.397L2107.24 788.904 2101.89 791.878C2095.14 795.623 2093.82 795.675 2092.67 792.246Z" fill="#FFFFFF" fill-rule="evenodd"/><path d="M2312.91 1164.33 2306.9 1160.37 2313.46 1156.49C2319.14 1153.14 2320.02 1153.07 2320.02 1155.99 2320.02 1158.87 2325.33 1159.48 2354.79 1160.05L2389.55 1160.72 2354.95 1161.21C2326.32 1161.61 2320.23 1162.27 2319.63 1165 2319.02 1167.82 2318.03 1167.72 2312.91 1164.33ZM2084.55 1160.04C2121.97 1159.71 2182.56 1159.71 2219.2 1160.04 2255.83 1160.39 2225.22 1160.66 2151.16 1160.66 2077.11 1160.66 2047.14 1160.39 2084.55 1160.04ZM2012.76 1088.76 2016.52 1082.1 2020.38 1086.8C2025.98 1093.62 2025.2 1095.43 2016.62 1095.43L2009 1095.43ZM2103.71 977.401 2103.71 945.216 2138.68 945.216C2169.76 945.216 2174.06 945.667 2177.31 949.257 2181.46 953.84 2182.27 969.536 2178.55 973.26 2176.81 975.005 2176.81 976.917 2178.55 980.181 2181.92 986.493 2181.56 998.791 2177.84 1003.88 2175 1007.77 2171.34 1008.24 2139.21 1008.88L2103.71 1009.59ZM2172.28 1002.57C2175.39 1000.91 2176.55 997.931 2176.55 991.611 2176.55 985.283 2175.39 982.302 2172.28 980.641 2169.93 979.38 2154.53 978.353 2138.07 978.353L2108.12 978.353 2108.12 991.611 2108.12 1004.86 2138.07 1004.86C2154.53 1004.86 2169.93 1003.83 2172.28 1002.57ZM2173.9 971.281C2177.32 967.858 2177.32 955.711 2173.9 952.288 2172.09 950.476 2161.29 949.641 2139.69 949.641L2108.12 949.641 2108.12 961.789 2108.12 973.936 2139.69 973.936C2161.29 973.936 2172.09 973.101 2173.9 971.281ZM2208.24 1007.18C2198.99 1003.27 2196.41 996.362 2196.41 975.556 2196.41 957.806 2196.9 955.577 2201.83 950.643 2206.98 945.483 2208.54 945.216 2234.01 945.216L2260.77 945.216 2267.43 951.895C2274.01 958.474 2274.09 958.85 2273.33 978.345 2272.24 1006.53 2270.5 1008.01 2237.74 1008.68 2224.12 1008.96 2210.84 1008.28 2208.24 1007.18ZM2263.84 999.443C2268.67 994.6 2269.25 992.145 2269.25 976.658 2269.25 951.027 2267.48 949.641 2234.96 949.641 2202.05 949.641 2200.83 950.618 2200.83 977.092 2200.83 994.567 2201.19 995.986 2206.64 1000.29 2211.68 1004.25 2215.54 1004.86 2235.44 1004.86 2256.9 1004.86 2258.77 1004.5 2263.84 999.443ZM2286.68 998.983C2300.12 965.362 2308.76 946.401 2310.98 945.658 2312.48 945.158 2311.78 949.098 2309.22 955.51 2295.78 989.132 2287.14 1008.1 2284.92 1008.84 2283.41 1009.34 2284.12 1005.4 2286.68 998.983ZM2075.19 987.612C2067.4 983.12 2060.67 978.362 2060.23 977.034 2059.79 975.707 2065.66 971.24 2073.28 967.099 2090.94 957.514 2090.46 957.706 2090.46 960.336 2090.46 961.563 2084.91 965.746 2078.13 969.628L2065.8 976.691 2072.05 980.791C2075.48 983.045 2081.03 986.026 2084.38 987.412 2087.73 988.798 2090.46 991.302 2090.46 992.981 2090.46 996.754 2091.93 997.272 2075.19 987.612ZM2318.96 993.882C2318.32 992.855 2323.91 988.581 2331.37 984.389L2344.94 976.758 2331.36 969.102C2323.9 964.895 2318.44 960.787 2319.24 959.985 2321.23 958.007 2351.15 974.362 2350.28 976.95 2349.17 980.281 2320.23 995.936 2318.96 993.882ZM2384.52 871.403C2382.59 867.17 2382.74 865.817 2385.27 864.849 2388.73 863.513 2395.11 865.308 2395 867.587 2394.91 869.474 2389.35 876.738 2388.01 876.738 2387.42 876.738 2385.86 874.342 2384.52 871.403ZM2092.11 792.246C2091.6 790.728 2091.63 787.776 2092.17 785.687 2093.08 782.165 2093.64 782.144 2099.93 785.397L2106.71 788.904 2101.35 791.878C2094.59 795.623 2093.26 795.675 2092.11 792.246Z" fill="#FFFFFF" fill-rule="evenodd"/><path d="M2313.27 1163.71 2307.39 1160.12 2313.82 1156.43C2319.15 1153.38 2320.26 1153.29 2320.26 1155.9 2320.26 1158.47 2326.69 1159.17 2355.06 1159.72L2389.86 1160.39 2355.22 1160.88C2328.36 1161.25 2320.42 1162.03 2319.87 1164.33 2319.29 1166.71 2317.99 1166.58 2313.27 1163.71ZM2084.55 1159.71C2122 1159.38 2182.65 1159.38 2219.33 1159.71 2256 1160.05 2225.36 1160.33 2151.23 1160.33 2077.1 1160.33 2047.09 1160.05 2084.55 1159.71ZM2011 1093.51C2011.04 1092.59 2012.39 1089.49 2013.99 1086.6L2016.9 1081.36 2020.54 1086.55C2025.62 1093.79 2025.14 1095.16 2017.55 1095.16 2013.9 1095.16 2010.96 1094.42 2011 1093.51ZM2103.72 977.247 2103.72 945.093 2138.95 945.093C2172.85 945.093 2174.31 945.285 2177.62 949.997 2181.58 955.653 2182.19 969.557 2178.64 973.11 2176.9 974.853 2176.9 976.763 2178.64 980.024 2182.02 986.33 2181.65 998.616 2177.93 1003.7 2175.09 1007.58 2171.42 1008.06 2139.26 1008.69L2103.72 1009.4ZM2173.98 1002.04C2178.39 997.632 2177.3 983.119 2172.36 980.483 2170.01 979.224 2154.6 978.198 2138.12 978.198L2108.14 978.198 2108.14 991.443 2108.14 1004.68 2139.74 1004.68C2161.37 1004.68 2172.17 1003.85 2173.98 1002.04ZM2173.98 971.133C2177.41 967.713 2177.41 955.577 2173.98 952.158 2172.17 950.348 2161.37 949.514 2139.74 949.514L2108.14 949.514 2108.14 961.65 2108.14 973.785 2139.74 973.785C2161.37 973.785 2172.17 972.951 2173.98 971.133ZM2208.36 1006.91C2199.2 1003.21 2196.52 996.189 2196.52 975.804 2196.52 958.138 2196.95 956.303 2202.34 950.915 2207.98 945.285 2209.02 945.093 2234.26 945.093 2258.51 945.093 2260.79 945.468 2266.43 950.314 2271.67 954.818 2272.64 957.546 2273.44 970.132 2275.57 1003.55 2270.05 1009.15 2235.19 1008.95 2223.04 1008.88 2210.96 1007.96 2208.36 1006.91ZM2264.02 999.267C2268.88 994.412 2269.44 992.002 2269.44 976.096 2269.44 950.54 2268.09 949.514 2234.81 949.514 2201.33 949.514 2200.94 949.814 2200.94 976.338 2200.94 1003.7 2202.09 1004.68 2234.19 1004.68 2257.15 1004.68 2258.91 1004.36 2264.02 999.267ZM2284.7 1004.32C2296.64 974.186 2309.29 946.177 2311.27 945.518 2312.68 945.043 2311.9 949.23 2309.45 955.377 2296.03 988.874 2287.34 1007.92 2285.14 1008.65 2283.4 1009.23 2283.27 1007.94 2284.7 1004.32ZM2075.11 987.031C2067.28 982.552 2060.55 977.948 2060.17 976.813 2059.79 975.671 2066.45 970.983 2074.97 966.387 2093.4 956.445 2096.05 959.181 2077.9 969.407L2065.34 976.488 2074.04 981.576C2085.99 988.574 2091.78 993.011 2090.47 994.187 2089.86 994.729 2082.95 991.51 2075.11 987.031ZM2320.26 992.703C2320.26 991.093 2323 988.632 2326.35 987.248 2329.7 985.863 2335.27 982.877 2338.72 980.608L2345 976.496 2331.51 968.906C2324.09 964.727 2318.67 960.657 2319.46 959.873 2321.39 957.946 2351.33 974.345 2350.52 976.872 2349.3 980.6 2320.26 995.797 2320.26 992.703ZM2384.82 871.352C2382.89 867.123 2383.04 865.771 2385.57 864.804 2387.32 864.128 2390.18 864.128 2391.94 864.804 2394.46 865.771 2394.62 867.123 2392.69 871.352 2391.34 874.287 2389.57 876.681 2388.76 876.681 2387.93 876.681 2386.16 874.287 2384.82 871.352ZM2092.68 788.457C2092.68 782.246 2092.98 782.023 2098.2 784.397 2104.83 787.417 2105.17 789.686 2099.45 792.746 2093.23 796.069 2092.68 795.716 2092.68 788.457Z" fill="#FFFFFF" fill-rule="evenodd"/><path d="M2313.32 1163.71 2307.44 1160.12 2313.87 1156.44C2319.2 1153.38 2320.31 1153.29 2320.31 1155.9 2320.31 1158.47 2326.74 1159.17 2355.1 1159.72L2389.9 1160.39 2355.26 1160.88C2328.41 1161.26 2320.47 1162.03 2319.92 1164.33 2319.34 1166.71 2318.04 1166.58 2313.32 1163.71ZM2084.62 1159.71C2122.07 1159.38 2182.71 1159.38 2219.39 1159.71 2256.05 1160.05 2225.42 1160.33 2151.29 1160.33 2077.17 1160.33 2047.17 1160.05 2084.62 1159.71ZM2011 1093.92C2011 1091.31 2015.65 1084.14 2017.35 1084.14 2018.33 1084.14 2020.26 1086.63 2021.64 1089.66 2024.02 1094.87 2023.8 1095.17 2017.58 1095.17 2013.96 1095.17 2011 1094.61 2011 1093.92ZM2103.79 977.129 2103.79 945.13 2138.04 945.13C2169.34 945.13 2172.66 945.514 2176.7 949.551 2181.65 954.496 2182.41 964.145 2178.53 972.668 2176.54 977.012 2176.54 978.955 2178.53 980.94 2179.95 982.358 2181.12 987.228 2181.12 991.748 2181.12 998.011 2179.72 1001.07 2175.3 1004.55 2170 1008.71 2166.51 1009.12 2136.63 1009.12L2103.79 1009.12ZM2174.05 1002.06C2175.51 1000.6 2176.7 995.843 2176.7 991.473 2176.7 987.103 2175.51 982.333 2174.05 980.882 2172.23 979.064 2161.43 978.23 2139.8 978.23L2108.21 978.23 2108.21 991.473 2108.21 1004.71 2139.8 1004.71C2161.43 1004.71 2172.23 1003.87 2174.05 1002.06ZM2175.59 961.684 2175.59 950.651 2141.9 950.042 2108.21 949.434 2108.21 961.684 2108.21 973.935 2141.9 973.326 2175.59 972.717ZM2210.44 1007.57C2200.45 1005.64 2196.58 997.01 2196.58 976.662 2196.58 959.016 2196.93 957.69 2203.04 951.585 2209.43 945.197 2209.77 945.13 2234.95 945.13 2258.61 945.13 2260.84 945.506 2266.55 950.409 2272.08 955.163 2272.78 957.373 2273.55 972.534 2275.09 1003.07 2268.39 1009.34 2234.76 1008.82 2224.09 1008.65 2213.14 1008.09 2210.44 1007.57ZM2264.38 999.912C2268.93 995.642 2269.49 993.091 2269.49 976.745 2269.49 950.493 2268.29 949.551 2234.87 949.551 2201.38 949.551 2201 949.851 2201 976.37 2201 1003.77 2202.1 1004.71 2234.55 1004.71 2256.88 1004.71 2259.75 1004.25 2264.38 999.912ZM2295.21 979.889C2301.94 963.803 2307.96 949.409 2308.58 947.891 2309.22 946.373 2310.56 945.13 2311.59 945.13 2312.61 945.13 2307.94 958.29 2301.21 974.369 2294.48 990.447 2288.46 1004.85 2287.83 1006.37 2287.21 1007.88 2285.86 1009.12 2284.84 1009.12 2283.81 1009.12 2288.49 995.968 2295.21 979.889ZM2073.41 985.794C2065.82 981.491 2059.61 977.287 2059.62 976.445 2059.63 975.611 2066.59 971.141 2075.08 966.521 2083.58 961.893 2090.54 959.149 2090.54 960.408 2090.54 961.676 2085.63 965.195 2079.65 968.222 2073.66 971.258 2068.19 974.652 2067.49 975.769 2066.8 976.896 2071.7 980.89 2078.38 984.659 2089.73 991.056 2092.85 993.724 2088.88 993.641 2087.97 993.624 2081.01 990.089 2073.41 985.794ZM2321.44 991.431C2322.2 990.189 2327.76 986.677 2333.8 983.625 2339.83 980.573 2344.16 977.096 2343.43 975.903 2342.69 974.711 2337.18 971.258 2331.2 968.222 2325.2 965.195 2320.31 961.718 2320.31 960.5 2320.31 958.057 2351.14 973.993 2351.2 976.47 2351.24 978.072 2324.41 993.675 2321.62 993.675 2320.75 993.675 2320.67 992.665 2321.44 991.431ZM2385.74 872.052C2382.49 867.441 2382.46 866.715 2385.42 866.09 2387.28 865.698 2390.22 865.698 2391.95 866.09 2394.6 866.69 2394.65 867.666 2392.28 872.052L2389.44 877.298ZM2092.74 788.344C2092.74 781.589 2093.92 781.385 2101.05 786.902 2103.23 788.587 2102.99 789.696 2099.95 792.004 2094.1 796.44 2092.74 795.754 2092.74 788.344Z" fill="#FFFFFF" fill-rule="evenodd"/></g></svg>